<svg width="112" height="54" viewBox="0 0 112 54" fill="none" xmlns="http://www.w3.org/2000/svg">
<rect width="112" height="54" rx="1" fill="#141210"/>
<path d="M31.3753 42.0061V34.9283H31.203L28.9343 42.0348H28.3743L26.1056 34.9426H25.9333V42.0204H25V34.2104H26.6656L28.6758 40.4269L30.643 34.2104H32.323V42.0492H31.3753V42.0061Z" fill="#D9D9D9"/>
<path d="M33.6851 35.2156V34.1963H34.7045V35.2156H33.6851ZM33.6994 42.0063V35.9765H34.6902V42.0063H33.6994Z" fill="#D9D9D9"/>
<path d="M40.7371 40.0393C40.7371 41.2165 40.292 42.1066 38.3392 42.1066C35.8838 42.1066 35.7402 40.6997 35.7402 38.9769C35.7402 37.2541 35.8838 35.8472 38.3392 35.8472C40.292 35.8472 40.7371 36.7516 40.7371 37.9145H39.8038C39.8038 36.9526 39.4735 36.4932 38.3392 36.4932C36.8171 36.4932 36.731 37.3115 36.731 38.9482C36.731 40.5848 36.8028 41.4032 38.3392 41.4032C39.4735 41.4032 39.8038 40.9294 39.8038 39.9819L40.7371 40.0393Z" fill="#D9D9D9"/>
<path d="M42.6773 36.6229C43.1511 36.3357 43.7542 35.9337 44.3142 35.9194C44.429 35.905 44.5439 35.905 44.6588 35.905C44.8167 35.905 44.9459 35.905 45.1326 35.9194L45.0608 36.6372C44.9029 36.6229 44.7736 36.6229 44.6301 36.6229C44.5152 36.6229 44.4003 36.6229 44.2567 36.6372C43.7255 36.6516 43.1655 37.0536 42.7491 37.2833V42.0353H41.7583V35.9768H42.5337L42.6773 36.6229Z" fill="#D9D9D9"/>
<path d="M64.9455 36.5077C65.3906 36.235 65.9937 35.9048 66.6398 35.876C67.6593 35.833 68.1762 36.1057 68.4347 36.5364C68.9085 36.2493 69.526 35.8904 70.2152 35.876C72.2828 35.8186 72.4264 36.8666 72.4264 38.331V42.0063H71.4357V38.3884C71.4357 37.1394 71.3639 36.5364 70.0142 36.5364C69.526 36.5364 69.0234 36.8236 68.607 37.082C68.7075 37.5127 68.7506 37.9577 68.7219 38.4172V42.035H67.8603V38.4028C67.8603 37.1538 67.7885 36.5508 66.4388 36.5508C65.965 36.5508 65.4624 36.8379 65.0747 37.0533V42.0207H64.084V35.9909H64.8594L64.9455 36.5077Z" fill="#D9D9D9"/>
<path d="M50.7176 39.0067C50.7176 40.7295 50.574 42.1364 48.0756 42.1364C45.5772 42.1364 45.4336 40.7295 45.4336 39.0067C45.4336 37.2839 45.5772 35.877 48.0756 35.877C50.574 35.877 50.7176 37.2839 50.7176 39.0067ZM46.4387 39.0067C46.4387 40.6433 46.5105 41.4617 48.0756 41.4617C49.6407 41.4617 49.7125 40.6577 49.7125 39.0067C49.7125 37.3557 49.6407 36.5517 48.0756 36.5517C46.5105 36.5517 46.4387 37.3413 46.4387 39.0067Z" fill="#D9D9D9"/>
<path d="M52.5396 43.4141C52.9129 43.4572 53.4011 43.4715 53.9467 43.4715C55.4688 43.4715 55.6698 43.0552 55.6841 41.4616C55.239 41.72 54.6072 42.0072 53.9611 42.0215C51.7498 42.0646 51.6206 40.873 51.6206 38.9923C51.6206 37.1116 51.7355 35.8625 53.8606 35.8625C54.5785 35.8625 55.2534 36.1928 55.7703 36.523L55.8708 35.9774H56.6462V41.3324C56.6462 43.5003 56.158 44.1607 54.1621 44.1607C53.5734 44.1607 52.9847 44.1032 52.4247 44.0171L52.5396 43.4141ZM55.6841 37.0829C55.2534 36.8101 54.7077 36.5373 54.1765 36.5373C52.7119 36.5373 52.6114 37.3556 52.6114 38.9923C52.6114 40.6002 52.7119 41.3611 54.1765 41.3611C54.7077 41.3611 55.2677 41.074 55.6841 40.8586V37.0829Z" fill="#D9D9D9"/>
<path d="M62.0729 42.0072L61.9723 41.4616C61.4841 41.7775 60.838 42.122 60.1344 42.122C57.9232 42.1651 57.7939 40.9161 57.7939 38.9923C57.7939 37.0829 57.9088 35.8625 60.1057 35.8625C60.8236 35.8625 61.4698 36.1927 61.958 36.4942L62.0585 35.963H62.8339V41.9928H62.0729V42.0072ZM61.8718 37.0541C61.4554 36.8244 60.8954 36.5517 60.3642 36.5517C58.8996 36.5517 58.7991 37.37 58.7991 39.0066C58.7991 40.6433 58.8996 41.4616 60.3642 41.4616C60.8954 41.4616 61.4411 41.1745 61.8718 40.9161V37.0541Z" fill="#D9D9D9"/>
<path d="M73.647 35.2156V34.1963H74.6664V35.2156H73.647ZM73.6757 42.0063V35.9765H74.6664V42.0063H73.6757Z" fill="#D9D9D9"/>
<path d="M76.7787 36.5082C77.2669 36.2354 77.9131 35.9052 78.6166 35.8765C80.8279 35.8191 80.9571 36.8671 80.9571 38.3315V42.0068H79.9664V38.3889C79.9664 37.1399 79.8658 36.5369 78.4013 36.5369C77.87 36.5369 77.31 36.8241 76.8936 37.0681V42.0355H75.9028V35.977H76.6782L76.7787 36.5082Z" fill="#D9D9D9"/>
<path d="M82.8936 43.4141C83.2669 43.4572 83.7551 43.4715 84.3007 43.4715C85.8228 43.4715 86.0238 43.0552 86.0381 41.4616C85.593 41.72 84.9612 42.0072 84.3151 42.0215C82.1038 42.0646 81.9746 40.873 81.9746 38.9923C81.9746 37.1116 82.0895 35.8625 84.2146 35.8625C84.9325 35.8625 85.6074 36.1928 86.1243 36.523L86.2248 35.9774H87.0002V41.3324C87.0002 43.5003 86.512 44.1607 84.5161 44.1607C83.9274 44.1607 83.3387 44.1032 82.7787 44.0171L82.8936 43.4141ZM86.0238 37.0829C85.593 36.8101 85.0474 36.5373 84.5161 36.5373C83.0515 36.5373 82.951 37.3556 82.951 38.9923C82.951 40.6002 83.0515 41.3611 84.5161 41.3611C85.0474 41.3611 85.6074 41.074 86.0238 40.8586V37.0829Z" fill="#D9D9D9"/>
<path d="M56.051 9.83936C50.1639 9.83936 45.4111 14.6058 45.4111 20.5063C45.4111 21.5543 45.5691 22.6024 45.885 23.593C46.086 23.3202 46.2727 23.0474 46.445 22.7459C47.1916 21.6548 47.9096 20.5637 48.6275 19.4439L49.1588 18.5969C49.3311 18.3241 49.5034 18.037 49.6613 17.7498C50.0059 17.1899 50.3505 16.6157 50.6521 16.0558C50.81 15.7686 50.968 15.4959 51.1403 15.1944C51.3126 14.9072 51.4562 14.6345 51.6141 14.333C51.7721 14.0315 51.93 13.7444 52.0592 13.4716L52.49 12.5958L52.5331 12.5384C52.7628 12.0646 53.3372 11.878 53.8254 12.0933C54.17 12.2943 54.3854 12.6532 54.371 13.0696C54.371 13.5721 54.2705 14.1033 54.2274 14.6057C54.1843 15.1082 54.17 15.6394 54.1269 16.1706C54.0838 17.2043 54.0695 18.2667 54.0695 19.3004C54.0695 20.334 54.1269 21.3677 54.2274 22.3727C54.2849 22.8608 54.371 23.3489 54.4572 23.837C54.5289 24.2677 54.6725 24.6984 54.8736 25.0861C54.931 25.2009 55.0171 25.3158 55.1033 25.4163C55.1607 25.4593 55.1177 25.4306 55.1607 25.4306C55.2038 25.4306 55.1751 25.4306 55.2038 25.4306L55.2469 25.4163H55.2612L55.3187 25.4019C55.333 25.3876 55.3761 25.3588 55.3905 25.3445C55.5484 25.2296 55.6776 25.0861 55.8212 24.9281C56.1371 24.5549 56.4243 24.1816 56.6828 23.7796C56.9556 23.3633 57.214 22.9182 57.4581 22.4732C57.9607 21.5687 58.4345 20.6499 58.8797 19.7167C59.095 19.2429 59.3248 18.7835 59.5402 18.2954C59.7555 17.8216 59.9709 17.3335 60.1719 16.8741C60.373 16.386 60.933 16.1563 61.4212 16.3429C61.737 16.4577 61.9524 16.7305 62.0099 17.0607C62.0099 17.1756 62.0242 17.3335 62.0529 17.4914L62.1104 17.9365C62.1535 18.2236 62.1822 18.5251 62.254 18.8122C62.3545 19.4009 62.4693 19.9895 62.6273 20.5494C62.7852 21.1093 62.9719 21.6836 63.216 22.2291C63.4457 22.7747 63.7473 23.2771 64.1206 23.7509C64.1924 23.8658 64.178 24.0237 64.0775 24.0955C63.977 24.1672 63.8478 24.1672 63.7616 24.0955C63.2734 23.6648 62.8427 23.1766 62.4693 22.6454C62.096 22.1143 61.7801 21.5543 61.493 20.9801C61.2919 20.5925 61.1483 20.2048 60.9617 19.8028C60.8468 20.0325 60.7463 20.2766 60.6314 20.492C60.1576 21.4538 59.6981 22.4014 59.1525 23.3633C58.8797 23.8658 58.6068 24.3395 58.2909 24.8133C57.9751 25.3014 57.6304 25.7752 57.2571 26.2059C57.0417 26.4643 56.7833 26.6797 56.5392 26.895C56.4674 26.9524 56.3812 27.0098 56.2807 27.0529L56.1084 27.1534L56.0079 27.1965H55.9935L55.9361 27.2108H55.893L55.8212 27.2252C55.7638 27.2396 55.7207 27.2683 55.6633 27.2683C55.5484 27.2826 55.4336 27.3113 55.3187 27.3257C55.0602 27.3401 54.7874 27.3113 54.5577 27.2252C54.3279 27.1391 54.1125 27.0099 53.9115 26.8519C53.6243 26.5935 53.3659 26.292 53.1936 25.9331C52.9208 25.3876 52.7197 24.7989 52.6049 24.196C52.49 23.6504 52.4039 23.0761 52.3464 22.5306C52.2315 21.4395 52.1885 20.3627 52.1741 19.2716C52.1741 18.7692 52.1741 18.238 52.1741 17.7355C51.9731 18.1088 51.7864 18.482 51.5854 18.8266C51.4275 19.1137 51.2695 19.4152 51.0972 19.7023L50.609 20.5781C49.9485 21.7553 49.2593 22.9039 48.5413 24.0524C48.0962 24.7989 47.6224 25.5311 47.1485 26.2633C50.3649 31.1876 56.9699 32.5515 61.895 29.3356C66.8201 26.1197 68.1841 19.5157 64.9678 14.5914C62.9863 11.6483 59.655 9.83936 56.051 9.83936Z" fill="#D9D9D9"/>
</svg>
