<svg width="112" height="54" viewBox="0 0 112 54" fill="none" xmlns="http://www.w3.org/2000/svg">
<rect width="112" height="54" rx="1" fill="#141210"/>
<g clip-path="url(#clip0_9204_18860)">
<g clip-path="url(#clip1_9204_18860)">
<mask id="mask0_9204_18860" style="mask-type:luminance" maskUnits="userSpaceOnUse" x="30" y="5" width="52" height="44">
<path d="M81.2379 5.72229H30.7617V48.2783H81.2379V5.72229Z" fill="white"/>
</mask>
<g mask="url(#mask0_9204_18860)">
<path d="M79.097 17.7173C79.097 17.7173 81.7607 28.5218 73.3756 36.6783H74.5104C74.5104 36.6783 70.4676 40.863 66.7636 42.5259C66.7636 42.5259 66.1253 42.25 65.5264 41.9033C65.5264 41.9033 67.6699 40.2877 69.6716 38.3963H67.993C67.993 38.3963 76.5279 28.2932 76.2284 17.339C76.2521 17.3626 78.0331 17.9379 79.0891 17.7094L79.097 17.7173Z" fill="#141210"/>
<path d="M57.7159 13.0437L42.7425 13.5875L42.3721 32.8007L52.7037 32.257L53.9883 28.9707L47.4236 29.1677L47.6443 25.2352L53.4682 24.983L55.0207 21.6731L54.8946 20.9796L47.6679 21.2318L47.8177 17.7249L56.2264 17.4018L57.7316 13.9657L57.708 13.0437H57.7159Z" fill="#D9D9D9"/>
<path d="M56.8491 17.4965H64.0521L63.0906 32.2256L52.8535 32.1547L54.2563 28.9945L60.6476 29.0418L61.1913 20.8064L55.4463 20.7354L55.399 20.0892L56.8569 17.5043L56.8491 17.4965Z" fill="#D9D9D9"/>
<path d="M58.5275 13.0909L67.6061 13.414L66.5974 29.4907L69.4818 29.7114L70.0965 32.7218L63.2166 32.4224L64.178 17.3938L56.9277 17.2913V16.3929L58.5275 13.083V13.0909Z" fill="#D9D9D9"/>
<path d="M58.7709 13.391L67.2033 13.7614L66.3128 29.6884L66.5571 29.8618L69.1971 30.0588L69.67 32.226L63.9485 31.8792L65.0597 16.8506C65.0597 16.8506 65.0361 16.4802 64.5869 16.3778L57.4863 16.2517L58.7709 13.391Z" fill="#D9D9D9"/>
<path d="M57.0464 17.7959H63.7293L62.8388 31.7842L53.4922 31.7133L54.5009 29.3254L60.837 29.4515C60.837 29.4515 61.1838 29.3491 61.2074 29.1048L61.8773 20.4202C61.8773 20.4202 61.83 20.0183 61.4123 19.9001L55.9116 19.8764L57.0464 17.8117V17.7959Z" fill="#D9D9D9"/>
<path d="M53.1771 29.3647L52.1132 31.7998L42.7666 32.2963L43.0897 13.9027L57.1726 13.4298L55.9432 16.2196L47.3374 16.6215C47.3374 16.6215 46.9434 16.724 46.9434 17.3465L46.8409 21.082C46.8409 21.082 46.6912 21.5785 47.235 21.6021L54.438 21.3815L53.1061 24.3446L47.2113 24.6441C47.2113 24.6441 46.7464 24.5732 46.6912 25.2903L46.5888 29.0967C46.5888 29.0967 46.5651 29.5459 47.2035 29.5459L53.1692 29.3726L53.1771 29.3647Z" fill="#D9D9D9"/>
<path d="M54.019 33.9199L52.3877 35.4409L52.435 42.636H58.9681L60.6467 41.115L60.7176 33.9199H54.0111H54.019ZM54.9568 40.8629V35.5906L58.1406 35.6143V40.8629H54.9568Z" fill="#D9D9D9"/>
<path d="M70.0246 34.2196L63.4599 33.9989L61.734 35.4411L61.6631 42.6835L64.1298 42.7071L64.177 39.3499L65.5089 39.3736L67.7549 43.0302L69.8748 41.9821L68.2987 39.3657L69.8748 38.1205L70.0246 34.2117V34.2196ZM67.3372 37.7265L64.2795 37.6792L64.3504 35.7405L67.4318 35.8115L67.3372 37.7265Z" fill="#D9D9D9"/>
<path d="M69.5527 37.8525L69.6788 34.6135L63.587 34.3613L62.129 35.6301L62.0029 42.2027H63.7997V39.4917C63.7997 39.0661 64.1701 38.9479 64.1701 38.9479H65.3286C65.6754 38.9716 65.7936 39.1686 65.7936 39.1686L67.8662 42.4312L69.3478 41.7614L67.9923 39.6493C67.8662 39.3971 68.0396 39.1765 68.0396 39.1765L69.5448 37.8604L69.5527 37.8525ZM67.3303 37.7264L64.2726 37.6791L64.3435 35.7405L67.4249 35.8114L67.3303 37.7264Z" fill="#D9D9D9"/>
<path d="M67.2595 35.386H64.4225C63.9496 35.4096 63.926 35.8588 63.9023 35.8588V37.6241C63.926 37.9945 64.2255 38.026 64.2255 38.026L67.2359 38.1285C67.6772 38.1048 67.7087 37.7581 67.7087 37.7581L67.7797 36.0874C67.7797 35.4884 67.2595 35.3939 67.2595 35.3939V35.386ZM67.3305 37.7266L64.2727 37.6793L64.3437 35.7406L67.425 35.8115L67.3305 37.7266Z" fill="#D9D9D9"/>
<path d="M42.2692 34.3456L36.3035 34.6924L34.751 36.3868L34.948 40.0198L39.8341 39.673L39.8813 41.462L37.4856 41.659L37.4383 41.2098L35.7361 41.2334L35.0189 41.8796V43.5504L40.8192 43.1484L42.4505 41.5565L42.3795 37.7738L37.3753 38.0969V36.3316L39.8419 36.1819L39.8892 36.7256L41.7412 36.6232L42.3795 35.977L42.2771 34.3378L42.2692 34.3456Z" fill="#D9D9D9"/>
<path d="M36.5012 35.0389L35.1221 36.481L35.2954 39.6649L39.5905 39.3654C39.5905 39.3654 40.0554 39.2945 40.1342 39.8619L40.2052 41.5326C40.2052 41.5326 40.2288 41.8321 39.9372 41.8557L37.4469 41.9818C37.4469 41.9818 37.1474 42.0291 37.1001 41.438L35.7446 41.5405L35.2797 42.0133L35.3506 43.1324L40.6071 42.762L42.0098 41.3907L42.0335 38.2069L37.5178 38.4591C37.5178 38.4591 37.0529 38.5064 36.9977 38.136V36.3707C36.9977 36.3707 36.9977 36.0003 37.439 35.9688L39.7323 35.8427C39.7323 35.8427 40.2524 35.8427 40.1263 36.4653L41.5291 36.3392L42.0256 35.8663L42.002 34.6685L36.5012 35.0389Z" fill="#D9D9D9"/>
<path d="M71.0811 34.2434L79.1983 34.8896L79.1273 36.6313L76.2666 36.3791L75.8962 43.2747L73.3823 43.125L73.7527 36.1584L70.9629 36.0087L71.089 34.2434H71.0811Z" fill="#D9D9D9"/>
<path d="M78.978 35.1415L78.9308 36.3394L76.3932 36.0636C76.3932 36.0636 75.9991 36.0636 75.9518 36.5128L75.6051 42.9356L73.7058 42.8331L74.0762 36.3867C74.0762 36.3867 74.1708 35.9848 73.7058 35.8429L71.3652 35.6932L71.4125 34.7002L78.9859 35.1494L78.978 35.1415Z" fill="#D9D9D9"/>
<path d="M54.2171 34.2434L52.7119 35.6147L52.838 42.2581L58.9062 42.2345L60.3641 40.942L60.3878 34.2986L54.225 34.2513L54.2171 34.2434ZM54.9579 35.591L58.1418 35.6147V40.8632H54.9579V35.591Z" fill="#D9D9D9"/>
<path d="M58.0152 35.2594H55.0835C54.587 35.2357 54.6186 35.7795 54.6186 35.7795V40.8074C54.6422 41.3276 55.1623 41.2566 55.1623 41.2566H57.9994C58.4644 41.2566 58.5195 40.8074 58.5195 40.8074V35.8032C58.4959 35.2042 58.023 35.2594 58.023 35.2594H58.0152ZM58.1413 40.8626H54.9574V35.5904L58.1413 35.614V40.8626Z" fill="#D9D9D9"/>
<path d="M51.4489 38.6487L51.3465 34.2906L44.8842 34.5113L43.2529 36.0559L43.5209 43.2747L45.9875 43.1723L45.9639 40.3352L49.8097 40.2091L51.441 38.6408L51.4489 38.6487ZM48.8561 38.5226L45.8693 38.5699L45.8221 36.182L48.8325 36.0559L48.8561 38.5226Z" fill="#D9D9D9"/>
<path d="M51.0311 34.6686L45.0102 34.8184L43.6074 36.2369L43.8044 42.9277L45.7037 42.8016L45.6801 40.3349C45.6801 40.3349 45.7037 39.9882 46.0977 39.9645L49.652 39.8621L51.1099 38.4672L51.039 34.6608L51.0311 34.6686ZM48.8639 38.5223L45.8771 38.5696L45.8298 36.1818L48.8402 36.0557L48.8639 38.5223Z" fill="#D9D9D9"/>
<path d="M49.1807 38.4748L49.1334 36.213C49.1334 35.8111 48.834 35.7875 48.834 35.7875H46.0205C45.4295 35.7875 45.4768 36.284 45.4531 36.3312V38.5694C45.5241 39.0895 45.8944 39.0186 45.8944 39.0186L48.7552 38.9713C49.2201 38.924 49.1728 38.4748 49.1728 38.4748H49.1807ZM45.8787 38.5773L45.8314 36.1894L48.8418 36.0633L48.8655 38.53L45.8787 38.5773Z" fill="#D9D9D9"/>
</g>
</g>
</g>
<defs>
<clipPath id="clip0_9204_18860">
<rect x="3" y="6.80957" width="106" height="40.381" rx="0.84127" fill="white"/>
</clipPath>
<clipPath id="clip1_9204_18860">
<rect width="50.4762" height="42.556" fill="white" transform="translate(30.7617 5.72205)"/>
</clipPath>
</defs>
</svg>
