<svg width="112" height="54" viewBox="0 0 112 54" fill="none" xmlns="http://www.w3.org/2000/svg">
<rect width="112" height="54" rx="1" fill="#141210"/>
<g clip-path="url(#clip0_9204_18906)">
<path d="M25 17.6665H37.0359V20.9918H29.5135V23.5613H36.4816V26.7354H29.5135V29.8339H37.2735V33.3859H25V17.6665ZM38.9363 22.0498H48.6759V24.6193L43.3706 30.4385H48.9926V33.3859H38.5404V30.5896L43.6082 24.9972H38.9363V22.0498ZM61.8204 33.3859H58.0196V31.5721C57.4653 32.3278 56.911 32.8568 56.3567 33.1591C55.8024 33.4614 55.0898 33.6126 54.2188 33.6126C53.1102 33.6126 52.2392 33.2347 51.6057 32.5546C50.9722 31.8744 50.6555 30.7408 50.6555 29.2293V22.0498H54.6939V28.3224C54.6939 29.0026 54.8522 29.5316 55.0898 29.8339C55.3273 30.1362 55.6441 30.2873 56.1192 30.2873C56.5943 30.2873 56.9902 30.0606 57.3069 29.6827C57.6237 29.3049 57.782 28.5491 57.782 27.5667V22.0498H61.8204V33.3859ZM71.56 22.0498H75.3608V33.3103C75.3608 33.9905 75.2024 34.6706 74.9649 35.3508C74.7273 36.0309 74.3314 36.4844 73.8563 36.9378C73.3812 37.3157 72.8269 37.618 72.1143 37.7691C71.4016 37.9203 70.6098 38.0714 69.6596 38.0714C67.5216 38.0714 66.0963 37.6936 65.3045 37.0134C64.5126 36.3332 64.1167 35.4264 64.1167 34.2927V33.6882L67.9967 34.1416C68.0759 34.5195 68.2343 34.8218 68.4718 34.9729C68.7886 35.1996 69.1053 35.2752 69.5804 35.2752C70.1347 35.2752 70.6098 35.1241 70.8473 34.7462C71.1641 34.4439 71.2432 33.8393 71.2432 33.008V31.2698C70.8473 31.7988 70.4514 32.1767 70.0555 32.4034C69.422 32.7813 68.7886 32.9324 68.0759 32.9324C66.6506 32.9324 65.542 32.2523 64.671 30.9675C64.0375 30.0606 63.7208 28.7759 63.7208 27.2644C63.7208 25.5262 64.1167 24.1659 64.9086 23.1834C65.7004 22.2765 66.7298 21.8231 67.9967 21.8231C68.7885 21.8231 69.5012 21.9742 70.0555 22.2765C70.6098 22.5788 71.0849 23.1078 71.56 23.788V22.0498ZM67.7592 27.4911C67.7592 28.3224 67.9175 28.927 68.2343 29.3049C68.551 29.6827 68.9469 29.9095 69.5012 29.9095C69.9763 29.9095 70.4514 29.6827 70.7681 29.3049C71.0849 28.927 71.2432 28.2468 71.2432 27.4155C71.2432 26.5842 71.0849 25.9796 70.689 25.5262C70.293 25.0727 69.8971 24.846 69.3428 24.846C68.7885 24.846 68.3926 25.0727 68.0759 25.4506C67.9175 25.9041 67.7592 26.5842 67.7592 27.4911ZM77.3404 21.9742H81.3787V33.2347H77.3404V21.9742Z" fill="#D9D9D9"/>
<path d="M84.2294 21.2186C85.7601 21.2186 87.0009 20.0344 87.0009 18.5736C87.0009 17.1127 85.7601 15.9285 84.2294 15.9285C82.6988 15.9285 81.458 17.1127 81.458 18.5736C81.458 20.0344 82.6988 21.2186 84.2294 21.2186Z" fill="#D9D9D9"/>
</g>
<defs>
<clipPath id="clip0_9204_18906">
<rect width="62.0008" height="22.1431" fill="white" transform="translate(25 15.9285)"/>
</clipPath>
</defs>
</svg>
