<svg width="112" height="54" viewBox="0 0 112 54" fill="none" xmlns="http://www.w3.org/2000/svg">
<rect width="112" height="54" rx="1" fill="#141210"/>
<path d="M35.6161 19.1952C35.6161 24.253 35.5381 29.3853 35.5381 34.4431C35.5381 34.4431 35.4602 35.4844 34.1349 35.4844V37.2696C34.1349 37.2696 40.8392 38.3109 41.7747 33.5506L42.0865 19.2696C42.5543 19.2696 43.1 19.2696 43.5677 19.2696C43.5677 18.7489 43.5677 18.3026 43.5677 17.782C40.1376 17.782 36.7075 17.782 33.2773 17.782V19.1208H35.1483C35.3042 19.1952 35.4602 19.1952 35.6161 19.1952Z" fill="#D9D9D9"/>
<path d="M31.7173 35.6324L33.1985 35.8556V37.1944C32.9646 37.2688 31.0937 37.5663 29.4566 36.3762C27.9754 35.2605 27.7415 33.7729 27.7415 33.2523C27.6635 32.6572 27.5856 31.3928 28.5211 30.4258C29.3786 29.5333 30.548 29.5333 30.8598 29.5333C31.2496 29.5333 32.4189 29.4589 33.3544 30.2771C34.2899 31.1696 34.212 32.3597 34.212 32.5828C34.212 32.806 34.134 33.5498 33.5103 34.2192C32.8087 34.963 31.8732 35.0374 31.6394 35.0374L31.7173 35.6324Z" fill="#D9D9D9"/>
<path d="M55.1052 19.2696V17.782H45.7503V19.2696H47.3094V35.8563H44.9707V37.4183H55.1052V35.8563H53.546L53.624 19.2696H55.1052Z" fill="#D9D9D9"/>
<path d="M83.1696 19.2696V17.782H73.8147V19.2696H75.3739V35.8563H73.0352V37.4183H83.1696V35.8563H81.6105L81.6884 19.2696H83.1696Z" fill="#D9D9D9"/>
<path d="M67.5767 17.782V19.2696H66.0175V37.4183H57.3643L57.4422 35.8563H59.0014V19.2696H57.4422L57.5202 17.782H67.5767Z" fill="#D9D9D9"/>
<path d="M66.7988 35.8551C67.4225 35.632 68.2021 35.1857 68.9816 34.5163C71.3983 32.508 71.7102 29.8303 72.0999 29.9047C72.4118 29.9791 72.5677 31.4667 72.0999 37.4171H66.7988V35.8551Z" fill="#D9D9D9"/>
</svg>
