<svg width="112" height="54" viewBox="0 0 112 54" fill="none" xmlns="http://www.w3.org/2000/svg">
<rect width="112" height="54" rx="1" fill="#141210"/>
<path d="M44.2522 20.9883C44.2522 24.0895 41.7712 26.7255 38.67 26.7255C35.5688 26.7255 33.0879 24.2446 33.0879 20.9883C33.0879 17.7321 35.5688 15.2511 38.67 15.2511C41.7712 15.2511 44.2522 17.8871 44.2522 20.9883Z" fill="#D9D9D9"/>
<path d="M44.2522 20.9883C44.2522 24.0895 41.7712 26.7255 38.67 26.7255C35.5688 26.7255 33.0879 24.2446 33.0879 20.9883C33.0879 17.7321 35.5688 15.2511 38.67 15.2511C41.7712 15.2511 44.2522 17.8871 44.2522 20.9883Z" fill="#D9D9D9"/>
<path d="M44.5627 20.8346C44.5627 23.9358 42.0818 26.5718 38.9806 26.5718C35.8794 26.5718 33.3984 24.0909 33.3984 20.8346C33.3984 17.5784 35.8794 15.0974 38.9806 15.0974C42.0818 15.0974 44.5627 17.5784 44.5627 20.8346Z" fill="#D9D9D9"/>
<path d="M36.9648 27.5009C40.5312 29.2066 43.9425 27.3459 44.8729 24.0896C43.1672 26.8807 38.9806 27.811 36.9648 27.5009Z" fill="#D9D9D9"/>
<path d="M32.9327 18.507C33.2428 17.4216 34.3282 15.871 35.5687 15.5609C35.1035 15.2508 33.0877 13.7002 29.6764 14.1654C26.5752 14.7856 26.8853 18.352 27.3505 19.7475C27.3505 18.9722 27.3505 17.7317 27.8157 17.1115C28.1258 16.8014 29.6764 16.1811 32.6225 18.352C32.9327 18.6621 32.3124 18.0419 32.9327 18.507Z" fill="#D9D9D9"/>
<path d="M28.4368 17.4225C27.8165 19.4383 28.2817 21.6091 29.3671 24.2451C28.1267 22.2293 26.2659 20.0585 28.4368 17.4225Z" fill="#D9D9D9"/>
<path d="M32.6232 16.3383C31.3828 18.6642 31.0726 20.9901 32.3131 23.3159C31.6929 21.1451 31.8479 18.6642 32.6232 16.3383Z" fill="#D9D9D9"/>
<path fill-rule="evenodd" clip-rule="evenodd" d="M39.6004 19.1288C40.2207 19.2838 40.5308 19.594 40.3757 20.2142C40.3757 20.6794 40.0656 20.8344 39.7555 20.8344C40.0656 20.9895 40.3757 21.4547 40.0656 21.9199C39.7555 22.6952 39.2903 22.6952 38.515 22.5401L38.36 23.3154L37.8948 23.1603L38.0498 22.385H37.8948H37.7397L37.5847 23.1603L37.1195 23.0053L37.5847 22.23L36.6543 22.0749L36.8094 21.4547L37.1195 21.6097C37.2745 21.6097 37.2745 21.6097 37.2745 21.4547L37.5847 20.2142L37.8948 19.2838C37.8948 19.1288 37.8948 19.1288 37.7397 18.9737H37.4296L37.5847 18.5085L38.515 18.6636L38.6701 17.8883L39.1353 18.0434L38.9802 18.8187C39.1353 18.8187 39.1353 18.8187 39.2903 18.8187C39.2903 18.8187 39.2903 18.8187 39.4454 18.8187L39.6004 18.0434L40.0656 18.1984L39.6004 19.1288ZM38.515 20.2142C38.8251 20.3693 39.6004 20.5243 39.7555 20.0591C39.9106 19.594 39.1353 19.4389 38.8251 19.2838C38.8251 19.2838 38.8251 19.2838 38.6701 19.2838L38.515 20.2142ZM38.0498 21.7648L38.2049 20.8344C38.2049 20.8344 38.2049 20.8344 38.36 20.8344C38.6701 20.9895 39.6004 21.1446 39.4454 21.6097C39.2903 22.23 38.36 21.9199 38.0498 21.7648Z" fill="#D9D9D9"/>
<path d="M32.3135 19.4377L32.7787 19.7478L32.9337 19.2826L32.4685 19.1276L32.3135 19.2826V19.4377Z" fill="#D9D9D9"/>
<path d="M35.2578 14.7866C35.5679 14.9417 35.8781 15.0967 36.1882 15.2518L36.8084 15.0967C36.3432 14.9417 35.8781 14.4765 35.4129 14.3214L35.2578 14.4765C35.4129 14.6315 35.2578 14.7866 35.2578 14.7866Z" fill="#D9D9D9"/>
<path d="M36.0342 31.2244C36.8095 31.5345 38.205 31.8447 39.2904 31.8447C38.05 31.5345 37.7398 31.6896 36.9645 30.9143H36.4994C36.4994 31.0694 36.0342 31.2244 36.0342 31.2244Z" fill="#D9D9D9"/>
<path d="M37.2749 31.5329C34.0187 30.9127 25.9555 25.3305 26.1106 17.8876C26.1106 17.4225 26.2657 15.8719 27.3511 14.6314C28.1264 13.701 29.2118 13.2358 30.6073 13.2358C33.0883 13.2358 34.3288 13.8561 35.4142 14.3213L35.5693 14.4763L35.4142 14.7864L35.2591 14.6314C34.3288 14.1662 33.0883 13.701 30.6073 13.546C29.2118 13.546 28.2814 14.0111 27.5061 14.7864C26.2657 16.0269 26.2657 17.7326 26.2657 17.7326C26.1106 24.5552 32.9332 29.6722 36.4996 30.9127C32.1579 27.8115 27.6612 23.0046 29.0567 17.1123V16.9573H29.2118C30.4523 17.4225 31.5377 18.1978 32.4681 18.9731L32.313 19.1281C31.3826 18.3528 30.4523 17.7326 29.2118 17.1123C27.9713 23.1597 32.9332 27.9665 37.2749 30.9127V31.5329Z" fill="#D9D9D9"/>
<path d="M31.3827 39.7508H33.8637L33.7086 40.2159H30.6074L31.8479 33.3933H32.4681L31.3827 39.7508ZM40.3762 40.371C39.7559 40.371 39.2908 40.2159 38.8256 40.0609C38.3604 39.7508 38.0503 39.4406 37.8952 39.1305C37.5851 38.6653 37.5851 38.2002 37.5851 37.735C37.5851 36.9597 37.7402 36.3394 38.0503 35.7192C38.3604 35.099 38.8256 34.6338 39.4458 34.1686C40.0661 33.8585 40.6863 33.5484 41.4616 33.5484C42.0818 33.5484 42.547 33.7034 43.0122 33.8585C43.4774 34.1686 43.7875 34.4787 43.9426 34.7888C44.2527 35.254 44.2527 35.7192 44.2527 36.1844C44.2527 36.9597 44.0976 37.5799 43.7875 38.2002C43.4774 38.8204 43.0122 39.2856 42.392 39.7508C41.7717 40.2159 41.1515 40.371 40.3762 40.371ZM40.5312 39.7508C41.1515 39.7508 41.6167 39.5957 42.2369 39.2856C42.7021 38.9755 43.1673 38.5103 43.3223 38.0451C43.6324 37.5799 43.7875 36.9597 43.7875 36.3394C43.7875 35.7192 43.6324 35.099 43.1673 34.7888C42.7021 34.3237 42.2369 34.1686 41.6167 34.1686C40.9964 34.1686 40.5312 34.3237 40.0661 34.6338C39.6009 34.9439 39.1357 35.4091 38.9807 35.8743C38.6705 36.3394 38.5155 36.9597 38.5155 37.5799C38.5155 38.2002 38.6705 38.8204 39.1357 39.1305C39.2908 39.5957 39.7559 39.7508 40.5312 39.7508ZM52.781 33.5484L52.6259 34.1686H50.7652L49.6798 40.371H49.0595L50.145 34.1686H48.2842L48.4393 33.5484H52.781ZM60.534 33.5484L60.3789 34.1686H58.5182L57.4328 40.371H56.8125L57.8979 34.1686H56.0372L56.1923 33.5484H60.534ZM65.0307 34.1686L64.5655 36.8046H67.0465V37.2698H64.4105L63.9453 39.7508H66.7364L66.5813 40.371H63.0149L64.2554 33.5484H67.8218L67.6667 34.1686H65.0307ZM74.0242 33.5484C74.6444 33.5484 75.2646 33.7034 75.5748 34.0135C75.8849 34.3237 76.0399 34.6338 76.0399 35.099C76.0399 35.099 76.0399 35.254 76.0399 35.5641C76.0399 36.0293 75.7298 36.4945 75.4197 36.8046C75.1096 37.1147 74.6444 37.4249 74.0242 37.4249L75.2646 40.371H74.4893L73.2489 37.5799H72.0084L71.5432 40.371H70.923L72.1634 33.5484H74.0242ZM75.2646 35.5641C75.2646 35.4091 75.2646 35.254 75.2646 35.254C75.2646 34.9439 75.1096 34.6338 74.9545 34.4787C74.7995 34.3237 74.3343 34.1686 73.8691 34.1686H72.4736L72.0084 36.9597H73.4039C73.8691 36.9597 74.3343 36.8046 74.6444 36.6496C74.9545 36.3394 75.1096 36.0293 75.2646 35.5641ZM84.8784 33.5484L81.9322 37.735L81.467 40.371H80.8468L81.312 37.735L79.9164 33.5484H80.6917L81.7772 37.1147L84.1031 33.5484H84.8784Z" fill="#D9D9D9"/>
<path d="M52.0041 29.5172C51.2288 29.5172 50.4535 29.5172 49.5232 29.3621C48.7479 29.3621 47.9726 29.2071 47.1973 29.052L50.4535 15.5618C51.2288 15.4067 52.0041 15.4067 52.7794 15.2517C53.5547 15.2517 54.33 15.0966 55.1053 15.0966C55.8806 15.0966 56.6559 15.2517 57.1211 15.4067C57.7413 15.5618 58.2065 15.7169 58.5166 16.027C58.8267 16.3371 59.1369 16.6472 59.2919 16.9573C59.447 17.2675 59.602 17.7326 59.602 18.1978C59.602 18.5079 59.602 18.8181 59.447 19.1282C59.447 19.4383 59.2919 19.7484 59.1369 20.0585C58.9818 20.3687 58.6717 20.6788 58.3616 20.9889C58.0514 21.299 57.5863 21.4541 57.1211 21.7642C57.7413 22.0743 58.2065 22.3844 58.5166 22.8496C58.8267 23.3148 58.9818 23.78 58.9818 24.4002C58.9818 25.0204 58.8267 25.6407 58.6717 26.2609C58.5166 26.8812 58.0514 27.3463 57.4312 27.8115C56.811 28.2767 56.1907 28.5868 55.2604 28.8969C54.33 29.2071 53.3997 29.5172 52.0041 29.5172ZM51.8491 23.3148L50.9187 26.8812C51.0738 26.8812 51.3839 26.8812 51.694 27.0362H52.6244C53.0895 27.0362 53.3997 27.0362 53.8648 26.8812C54.33 26.8812 54.6401 26.7261 54.9503 26.571C55.2604 26.416 55.5705 26.2609 55.7256 25.9508C55.8806 25.6407 56.0357 25.3306 56.0357 24.8654C56.0357 24.7103 56.0357 24.5553 55.8806 24.2451C55.8806 24.0901 55.7256 23.935 55.5705 23.78C55.4154 23.6249 55.2604 23.4698 54.9503 23.4698C54.6401 23.3148 54.33 23.3148 54.0199 23.3148H51.8491ZM52.3142 20.9889H54.33C55.1053 20.9889 55.7256 20.8338 56.0357 20.5237C56.5009 20.2136 56.6559 19.7484 56.6559 19.2832C56.6559 18.9731 56.6559 18.8181 56.5009 18.663C56.3458 18.5079 56.1907 18.3529 56.0357 18.1978C55.8806 18.0428 55.5705 18.0428 55.4154 18.0428C55.2604 18.0428 54.9503 18.0428 54.6401 18.0428C54.33 18.0428 54.0199 18.0428 53.7098 18.0428C53.3997 18.0428 53.0895 18.0428 52.9345 18.0428L52.3142 20.9889ZM73.2473 15.4067L72.6271 18.0428H68.5955L65.8044 29.3621H62.7032L65.4943 18.0428H61.4628L62.083 15.4067H73.2473ZM82.5509 28.7419C82.0857 29.052 81.3104 29.2071 80.6902 29.3621C80.0699 29.5172 79.1396 29.5172 78.2092 29.5172C77.4339 29.5172 76.6586 29.3621 75.8833 29.052C75.108 28.7419 74.6428 28.4318 74.1777 27.8115C73.7125 27.3463 73.4024 26.7261 73.0923 25.9508C72.7821 25.1755 72.6271 24.4002 72.6271 23.4698C72.6271 22.3844 72.7821 21.4541 73.2473 20.3686C73.5574 19.2832 74.1777 18.3529 74.7979 17.5776C75.5732 16.8023 76.3485 16.182 77.4339 15.5618C78.5193 15.0966 79.6048 14.7865 81.0003 14.7865C81.6205 14.7865 82.2408 14.9416 82.861 14.9416C83.4813 15.0966 84.1015 15.4067 84.8768 15.7169L83.7914 18.1978C83.1711 17.8877 82.706 17.7326 82.2408 17.5776C81.7756 17.4225 81.3104 17.4225 80.8452 17.4225C80.0699 17.4225 79.4497 17.5776 78.8295 17.8877C78.2092 18.1978 77.744 18.663 77.2789 19.1282C76.8137 19.5934 76.5036 20.2136 76.3485 20.9889C76.0384 21.7642 76.0384 22.3844 76.0384 23.1597C76.0384 24.4002 76.3485 25.1755 76.8137 25.7957C77.2789 26.2609 78.0542 26.571 78.9845 26.571C79.6048 26.571 80.225 26.571 80.6902 26.416C81.1554 26.2609 81.7756 26.1059 82.2408 25.9508L82.5509 28.7419Z" fill="#D9D9D9"/>
</svg>
