<svg width="112" height="54" viewBox="0 0 112 54" fill="none" xmlns="http://www.w3.org/2000/svg">
<rect width="112" height="54" rx="1" fill="#141210"/>
<path d="M49.3041 24.285H55.134L55.8459 23.0215H47.8931C47.8931 23.0215 44.3464 23.0985 43.7948 27.2801L43.0059 26.4913L43.7178 25.3047L42.6917 26.1706H40.7996L40.0108 25.542L40.402 26.4079L40.0877 27.1967C40.0877 27.1967 36.7783 26.0936 35.8355 21.9889L37.6442 22.5405L38.433 23.804L38.0418 22.3865L39.2989 20.9691H41.1075L39.4528 20.5715L38.1957 18.6795L36.2267 19.3914C36.2267 19.3914 36.9387 16.1589 40.7932 14.9724L41.0305 15.9216L40.402 16.7105L41.1139 16.1589L43.0829 16.3193L43.7948 17.1082L43.5575 16.1589L44.0321 15.2931C44.0321 15.2931 47.4954 15.5304 49.7017 19.4748C49.7017 19.4748 50.1763 19.5517 50.2533 18.7629C50.2533 18.7629 47.4185 14.1066 42.0631 14.1836C42.0631 14.1836 35.8419 13.632 32.7698 21.2834C32.7698 21.2834 31.3524 24.7532 32.9302 28.069C32.9302 28.069 32.5389 24.9905 35.5277 22.3865C35.5277 22.3865 36.6308 27.8317 42.1465 28.069C42.1465 28.069 37.3427 30.0444 32.462 28.4666C32.462 28.4666 30.9676 27.9151 31.5192 26.4913C31.5192 26.4913 30.2621 26.6516 31.1279 28.3833C31.1279 28.3833 32.2311 29.8007 36.323 29.884C36.323 29.884 39.549 29.961 43.4869 28.3063C43.4869 28.3063 43.2496 29.4094 43.6473 29.8071C43.6473 29.8071 41.6783 31.2245 37.7404 31.9364C37.7404 31.9364 37.7404 32.488 38.1316 32.6483C38.1316 32.6483 41.7553 31.7825 44.1155 30.442C44.1155 30.442 44.667 30.9166 45.6932 30.8397H52.389L53.1009 29.4223H48.4511C48.4511 29.4223 47.0337 29.4223 47.194 28.4731C46.9567 28.55 47.7456 25.7088 49.3233 24.2914L49.3041 24.285ZM35.207 21.8414C35.207 21.8414 33.0007 23.3422 32.6095 26.1834C32.6095 26.1834 31.4294 19.5517 37.9648 15.8447C37.9648 15.9216 35.3673 17.8201 35.207 21.8414ZM42.8456 20.5779L44.9749 19.0002L46.9439 20.4176L48.6755 19.943L47.0208 21.0461L46.078 23.0215L43.5575 23.0985L42.6147 24.1246L43.2432 22.8612L42.852 20.5715L42.8456 20.5779ZM37.099 32.6483C37.099 32.6483 36.9387 32.9626 36.1562 32.8856L35.6816 32.488C35.6816 32.488 35.6046 32.0134 36.3101 31.9364C36.3101 31.9364 36.8617 32.0967 37.099 32.6483ZM32.9237 31.0706L33.8665 31.8594L34.7324 31.6221L34.3412 32.5713L34.9697 33.2832L33.9435 33.1229L33.2316 33.9118L33.1546 32.8086L32.0515 32.411L33.0777 32.1737L32.9173 31.0706H32.9237ZM27.5684 28.5436L29.3001 30.8333L31.7436 30.3586L30.1659 32.2507L31.5833 34.38L29.3001 33.3538L27.6454 35.0919L27.5684 32.6483L25.0479 31.3079L27.4914 31.0706L27.5684 28.5436ZM50.7215 18.9232L51.6643 19.8724L52.7674 19.5582L52.2158 20.5074L53.0047 21.4566L51.9016 20.982L51.1897 21.9312L50.9524 20.828L49.7723 20.3534L50.8754 20.1931L50.7151 18.9296L50.7215 18.9232ZM53.9539 14.4209L56.3141 16.7875L58.7577 15.9216L57.5006 18.051L59.2323 20.2636L56.5514 19.4748L55.0571 21.6041L54.6658 19.0002L51.6707 17.8137L54.3516 17.1851L53.9603 14.4209H53.9539ZM57.8919 22.9445L54.6658 31.0706L57.1094 30.9936L59.553 24.9969L60.1046 31.0706H63.7282L68.609 25.3881L66.4027 31.0706H70.8922L74.0413 23.0985L68.2113 22.9381L63.7988 28.2229V23.0151L57.8919 22.9381V22.9445ZM86.6376 23.8104C86.6376 23.8104 86.2464 23.2588 84.5083 23.0985H75.7666L72.9318 31.0706H81.0449C81.0449 31.0706 84.4313 31.2309 85.2972 29.4928C85.2972 29.4158 87.8177 24.8365 86.6376 23.8104ZM82.6997 25.5485C82.6997 25.5485 81.9108 28.55 80.7307 29.6532L77.184 29.7301L79.1529 24.5223H82.225C82.225 24.4453 82.9305 24.5223 82.6997 25.5485ZM46.4693 34.0721C46.4693 34.0721 46.7835 33.2063 47.3351 33.1229H51.6643C51.6643 33.1229 52.4531 33.6745 50.6381 35.2522H47.1748C47.1748 35.2522 46.7001 35.7268 46.7001 36.5157H50.2469C50.2469 36.5157 50.7984 36.9903 49.3041 38.4911H44.5772C44.5772 38.4911 44.4169 38.2538 44.6542 37.7792L41.4282 37.7022C41.4282 37.7022 39.7735 39.5173 42.5313 39.7546H50.9588C50.9588 39.7546 53.7936 39.9919 54.1848 36.5221C54.1848 36.5221 54.0245 36.2078 53.3959 35.9705L53.5563 35.7332L54.1078 35.6563C54.1078 35.6563 55.2879 35.5793 55.6022 33.2127C55.6022 33.2127 55.8395 31.9492 53.3959 32.1096C53.3959 32.1096 46.0716 31.481 43.7884 32.6611C43.7884 32.6611 42.6852 33.373 42.9995 34.1619L46.4628 34.0849L46.4693 34.0721ZM69.8596 33.5975C69.8596 33.5975 70.4112 32.1801 67.4161 32.0967C67.4161 32.0967 58.9116 31.6221 57.4942 32.8856C57.4942 32.8856 55.9999 35.4895 54.8967 38.645C54.8967 38.645 54.6594 39.6712 56.7887 39.7481L65.6908 39.8251C65.6908 39.8251 67.6598 39.8251 68.3717 37.4585C68.3717 37.4585 69.4748 35.4831 67.4289 35.1688H60.2649C60.2649 35.1688 60.4252 33.7514 61.522 33.0395H65.8511C65.8511 33.0395 66.2424 33.2768 66.1654 33.5911H69.866L69.8596 33.5975ZM64.8955 36.83C64.8955 36.83 64.8955 37.6958 63.9527 38.645H59.3862C59.3862 38.645 58.7577 38.2474 59.7775 36.6696C59.7775 36.6696 64.5043 36.6696 64.8955 36.83ZM82.5393 32.1737L74.6634 32.0967C71.9889 32.2571 71.2001 34.6237 71.2001 34.6237C70.8088 35.6499 71.989 35.9641 71.989 35.9641C69.3081 36.5157 69.5454 38.9657 69.5454 38.9657C69.9366 39.5942 71.277 39.7546 71.277 39.7546H79.3902C82.225 39.4403 82.5393 36.9903 82.5393 36.9903C82.8536 36.1245 81.8274 35.8872 81.8274 35.8872C82.9305 35.6499 83.2448 34.938 83.2448 34.938C85.0534 32.1737 82.5393 32.1737 82.5393 32.1737ZM77.4982 38.8054H74.1119C74.1119 38.8054 73.0087 38.4077 74.5031 36.676L78.6014 36.753C78.6014 36.753 78.9926 38.0934 77.4982 38.8054ZM78.6783 35.2522H75.292C74.1888 34.226 76.0039 33.1229 76.0039 33.1229L80.0188 33.1999C80.2561 35.1753 78.6783 35.2522 78.6783 35.2522Z" fill="#D9D9D9"/>
</svg>
