<svg width="112" height="54" viewBox="0 0 112 54" fill="none" xmlns="http://www.w3.org/2000/svg">
<rect width="112" height="54" rx="1" fill="#141210"/>
<g clip-path="url(#clip0_9204_18833)">
<path d="M48.3552 40.0189C48.1582 39.6619 47.8709 39.4279 47.559 39.2514C47.6452 39.1816 47.7272 39.1037 47.8052 39.0175C48.109 38.6768 48.2854 38.2623 48.3716 37.7082C48.4742 37.0556 48.4086 36.4276 48.1869 35.8489C47.8381 34.9378 47.0993 34.4494 46.0568 34.437C45.5232 34.4329 44.9527 34.4288 44.2057 34.4288C43.8897 34.4288 43.5778 34.4288 43.2617 34.4288C42.9457 34.4288 42.6338 34.4288 42.3177 34.4288H41.9607L41.7842 34.6217V36.4112C41.7842 38.9887 41.7842 41.6566 41.7842 44.2833C41.7842 44.3695 41.7842 44.5296 41.8991 44.6445C42.0017 44.7471 42.133 44.7594 42.2398 44.7594H42.2603C42.4819 44.7594 42.7241 44.7553 43.0278 44.7553C43.1838 44.7553 43.3397 44.7553 43.4957 44.7553C43.6516 44.7553 43.8076 44.7553 43.9677 44.7553C44.2796 44.7553 44.53 44.7553 44.7598 44.7512C44.9035 44.7512 45.0512 44.7512 45.1949 44.7512C45.6874 44.7512 46.1963 44.7512 46.7176 44.6486C47.6411 44.468 48.2403 43.9427 48.5399 43.0397C48.7451 42.4282 48.8067 41.8084 48.7164 41.2051C48.663 40.848 48.5809 40.4253 48.3552 40.0189ZM44.4766 37.8231C44.4766 37.7492 44.4766 37.6754 44.4766 37.6015V36.9366C44.5012 36.9366 44.5259 36.9366 44.5546 36.9366C44.6285 36.9366 44.6983 36.9366 44.7721 36.9366C44.8419 36.9366 44.9076 36.9366 44.9773 36.9366C45.1005 36.9366 45.2647 36.9407 45.4247 36.9776C45.6997 37.0433 45.749 37.1828 45.7654 37.2854L45.7736 37.3593C45.8187 37.7164 45.8352 37.9462 45.6505 38.135C45.552 38.2335 45.4493 38.2828 45.3303 38.2828C45.2277 38.2828 45.1251 38.2828 45.0184 38.2828C44.8419 38.2828 44.6572 38.2828 44.4766 38.2869C44.4766 38.1309 44.4766 37.975 44.4766 37.8231ZM46.0773 41.5868C46.0404 41.7674 45.9706 41.9028 45.8721 41.9972C45.8064 42.0588 45.7161 42.1039 45.6217 42.1203C45.4699 42.1491 45.3016 42.1614 45.0841 42.1614C44.9897 42.1614 44.8871 42.1614 44.7927 42.1573C44.6941 42.1573 44.5915 42.1532 44.4889 42.1532H44.4725V40.6633C44.5012 40.6633 44.5341 40.6633 44.5669 40.6633C44.6449 40.6633 44.727 40.6633 44.805 40.6633H44.8378C44.924 40.6633 45.0143 40.6592 45.1005 40.6592C45.2729 40.6592 45.4001 40.6674 45.5232 40.692C45.6546 40.7167 45.8023 40.7454 45.8844 40.8234C45.9747 40.9014 46.0568 41.0614 46.0896 41.2133C46.1142 41.3159 46.1101 41.4431 46.0773 41.5991V41.5868Z" fill="#D9D9D9"/>
<path d="M63.2007 39.6825C63.0324 39.4485 62.8026 39.1818 62.4619 38.9848C62.7287 38.7754 62.9257 38.521 63.0652 38.1967C63.3402 37.577 63.3977 36.8833 63.2458 36.0707C63.1596 35.6151 62.9462 35.1924 62.6302 34.8476C62.2239 34.4043 61.6862 34.195 60.931 34.1868C60.3769 34.1786 59.831 34.1786 59.4165 34.1786C59.1949 34.1786 58.9691 34.1786 58.7475 34.1786C58.5259 34.1786 58.3001 34.1786 58.0785 34.1786C57.7748 34.1786 57.4751 34.1786 57.1714 34.1786H57.1632C57.0442 34.1786 56.9252 34.1909 56.8226 34.2771C56.6994 34.3838 56.683 34.5398 56.683 34.6506C56.683 37.4826 56.683 40.4787 56.6748 44.0864C56.6748 44.1357 56.6748 44.2835 56.7815 44.3943C56.8882 44.501 57.0278 44.501 57.0976 44.501H57.114C57.2125 44.501 57.311 44.501 57.4095 44.501C57.549 44.501 57.6886 44.501 57.8281 44.501C57.9677 44.501 58.1072 44.501 58.2509 44.501C58.4971 44.501 58.6941 44.501 58.8788 44.4928C58.9938 44.4928 59.1128 44.4887 59.2523 44.4887C59.3919 44.4887 59.5355 44.4887 59.6751 44.4887C59.8187 44.4887 59.9624 44.4887 60.1019 44.4887C60.5288 44.4887 61.0336 44.4764 61.5384 44.3902C62.5932 44.2096 63.1596 43.6883 63.5003 42.5843C63.6686 42.0384 63.7096 41.4761 63.6234 40.9138C63.566 40.5362 63.4921 40.0642 63.2048 39.6702L63.2007 39.6825ZM59.3713 37.5729C59.3713 37.499 59.3713 37.4251 59.3713 37.3512V36.6699C59.4452 36.6699 59.5232 36.6658 59.593 36.6617C59.6915 36.6617 59.7818 36.6535 59.8762 36.6535C60.0486 36.6535 60.1799 36.6658 60.2989 36.6986C60.6109 36.7766 60.8079 37.1337 60.7299 37.4703C60.6232 37.9299 60.5 38.0285 60.0239 38.0326H59.9706C59.9049 38.0326 59.8392 38.0326 59.7777 38.0326C59.712 38.0326 59.6463 38.0326 59.5807 38.0326C59.5027 38.0326 59.437 38.0326 59.3713 38.0326C59.3713 37.8766 59.3713 37.7206 59.3713 37.5729ZM60.9679 41.316C60.8982 41.7388 60.7381 41.8742 60.2743 41.8906C60.1799 41.8906 60.0732 41.8947 59.9501 41.8947C59.8721 41.8947 59.79 41.8947 59.7079 41.8947C59.6258 41.8947 59.5437 41.8947 59.4616 41.8947H59.3631C59.3631 41.7223 59.3631 41.5541 59.3631 41.3858C59.3631 41.3078 59.3631 41.2257 59.3631 41.1477V40.409H59.4124C59.5068 40.409 59.6053 40.409 59.6956 40.4049C59.7859 40.4049 59.8762 40.4008 59.9665 40.4008C60.2209 40.4008 60.4015 40.4213 60.5698 40.4664C60.9064 40.5608 61.0418 40.8481 60.9638 41.3201L60.9679 41.316Z" fill="#D9D9D9"/>
<path d="M54.7871 34.9338C54.2166 34.47 53.4943 34.2238 52.6939 34.2238C52.6529 34.2238 52.6077 34.2238 52.5667 34.2238C52.5051 34.2238 52.4436 34.2238 52.382 34.2238C51.7828 34.2238 51.2615 34.3469 50.7895 34.6055C49.8825 35.098 49.4392 35.9394 49.1232 36.6946C48.8646 37.3143 48.8071 37.9669 48.7538 38.599C48.7456 38.6852 48.7373 38.7714 48.7291 38.8575C48.684 39.3378 48.7004 39.859 48.7743 40.5444C48.8851 41.5459 49.1888 42.3832 49.6937 43.1055C50.1657 43.7786 50.7608 44.1973 51.5119 44.3902C51.9018 44.4928 52.263 44.5379 52.6159 44.5379C52.8581 44.5379 53.0961 44.5133 53.326 44.4641C53.9663 44.3286 54.4793 44.0783 54.8815 43.6883C55.3166 43.2738 55.6531 42.769 55.883 42.1903C56.1785 41.4433 56.3345 40.5526 56.3591 39.4691C56.3837 38.3814 56.2401 37.4169 55.9363 36.6043C55.6737 35.9106 55.2755 35.3319 54.7789 34.9297L54.7871 34.9338ZM53.5107 41.0493C53.3752 41.5048 52.9853 41.825 52.5585 41.825C52.4682 41.825 52.3738 41.8086 52.2835 41.7798C51.9141 41.6608 51.6843 41.3858 51.5201 40.8687C51.3641 40.3802 51.3641 39.8754 51.3641 39.3378C51.3641 39.2516 51.3641 39.1613 51.3641 39.0751C51.36 38.4594 51.438 37.9956 51.6186 37.5811C51.791 37.1789 52.0619 36.9531 52.4477 36.8916C52.4641 36.8916 52.4846 36.8875 52.5051 36.8875C52.8006 36.8875 53.2644 37.1542 53.4327 37.5113C53.5887 37.8397 53.761 38.7385 53.7446 39.4034V39.4198C53.7693 39.9124 53.6913 40.4295 53.5107 41.0452V41.0493Z" fill="#D9D9D9"/>
<path d="M69.8981 41.8906C69.7955 41.7839 69.6518 41.7716 69.5574 41.7716H69.541C69.3604 41.7716 69.1634 41.7716 68.9254 41.7716C68.7858 41.7716 68.6504 41.7716 68.5108 41.7716C68.3713 41.7716 68.2358 41.7716 68.0963 41.7716C67.7515 41.7716 67.4848 41.7716 67.2385 41.7798H67.1974C67.0989 41.7798 66.9963 41.7716 66.8855 41.7675C66.7747 41.7593 66.6598 41.7511 66.5449 41.7511C66.471 41.7511 66.3971 41.7511 66.3314 41.7593C66.3355 41.3283 66.3396 40.8317 66.3314 40.331C66.7213 40.3351 67.1154 40.3351 67.4519 40.3351H68.1086C68.4164 40.3351 68.7817 40.3351 69.1429 40.3392H69.1634C69.2907 40.3392 69.4343 40.3228 69.541 40.2119C69.6518 40.097 69.66 39.9411 69.6559 39.8343C69.6395 39.3459 69.6395 38.837 69.6559 38.3239C69.6559 38.209 69.6518 38.0654 69.541 37.9505C69.4343 37.8396 69.2866 37.8273 69.1716 37.8273H69.1552C68.7448 37.8314 68.3384 37.8314 67.8582 37.8314H67.3411C67.021 37.8314 66.6762 37.8314 66.3314 37.8314C66.3437 37.4456 66.3437 37.1009 66.3314 36.7807C66.3314 36.7766 66.3314 36.7684 66.3314 36.7643H66.3437C66.8281 36.7725 67.3042 36.7725 67.7474 36.7725H68.5273C68.7776 36.7725 69.106 36.7725 69.4384 36.7725H69.4466C69.5533 36.7725 69.6929 36.7602 69.7955 36.6535C69.9022 36.5468 69.9104 36.4031 69.9063 36.3046C69.894 35.7793 69.894 35.2334 69.9063 34.6383C69.9063 34.5274 69.8981 34.3879 69.7955 34.2853C69.6888 34.1786 69.5492 34.1663 69.4466 34.1663C68.5396 34.1663 67.653 34.1704 66.8116 34.1704C65.9128 34.1704 65.0263 34.1704 64.1767 34.1663H64.1726C64.0617 34.1663 63.9263 34.1786 63.8196 34.2853C63.717 34.3879 63.7006 34.5233 63.7047 34.6506C63.7088 35.849 63.7088 37.068 63.7088 38.246V39.0627V40.3392C63.7088 41.5458 63.7088 42.7895 63.7088 44.0167C63.7088 44.1069 63.7088 44.2629 63.8237 44.3737C63.9263 44.4763 64.0658 44.4886 64.1602 44.4886H64.1643C65.0263 44.4886 65.9128 44.4845 66.8691 44.4845C67.7146 44.4845 68.6011 44.4845 69.5862 44.4886C69.6888 44.4886 69.816 44.4763 69.9145 44.3778C70.013 44.2793 70.0253 44.148 70.0212 44.0495C70.013 43.3928 70.013 42.7977 70.0212 42.2354C70.0212 42.1287 70.013 41.9891 69.9104 41.8865L69.8981 41.8906Z" fill="#D9D9D9"/>
<path d="M40.7008 38.5127C40.2781 38.1638 39.7691 37.9545 39.33 37.7862C39.1412 37.7123 38.9442 37.6549 38.7595 37.5974C38.4722 37.5071 38.2013 37.425 37.9468 37.2978C37.7539 37.2034 37.6636 36.9735 37.7293 36.7683C37.8032 36.5426 37.9304 36.4441 38.1479 36.4441C38.1808 36.4441 38.2177 36.4441 38.2546 36.4523C38.7184 36.5098 38.8826 36.7027 38.9442 37.2362C38.9893 37.6467 39.2643 37.6877 39.3792 37.6877C39.4244 37.6877 39.4695 37.6836 39.5229 37.6713C39.9579 37.5769 40.393 37.5523 40.8568 37.5276H40.9635C41.0497 37.5153 41.2713 37.503 41.4027 37.3347C41.456 37.265 41.5135 37.1418 41.4765 36.953C41.4601 36.8791 41.4478 36.8053 41.4314 36.7314C41.3657 36.403 41.3 36.0624 41.1564 35.734C40.8855 35.0979 40.4094 34.6341 39.7773 34.3878C39.4121 34.2483 39.0057 34.1703 38.5912 34.1703C38.5378 34.1703 38.4845 34.1703 38.4311 34.1703H38.386C38.0617 34.1703 37.7416 34.2031 37.405 34.2729C36.4898 34.4576 35.8495 34.9994 35.5006 35.8818C35.2297 36.5713 35.1764 37.265 35.3406 38.0078C35.5376 38.9108 36.0916 39.5757 37.0808 40.0928C37.4256 40.2734 37.7949 40.3925 38.152 40.5074C38.271 40.5443 38.3901 40.5854 38.5091 40.6223C38.9893 40.7865 39.2438 41.1969 39.1247 41.6238C39.0345 41.9398 38.8333 42.1122 38.505 42.1491C38.4763 42.1491 38.4516 42.1532 38.4229 42.1532C38.111 42.1532 37.9222 41.9562 37.8155 41.792C37.6923 41.5991 37.6061 41.3939 37.5569 41.1641C37.5405 41.0943 37.5323 41.0163 37.52 40.9424C37.5117 40.8809 37.5035 40.8234 37.4912 40.7742L37.4543 40.5977L37.2737 40.5771C37.2532 40.5771 37.2244 40.5771 37.1916 40.5771C37.1177 40.5771 37.0028 40.5854 36.8468 40.5977C36.4898 40.61 36.1286 40.6346 35.7756 40.6592C35.6279 40.6715 35.476 40.6798 35.3282 40.6921C34.9958 40.7126 34.9917 40.9876 34.9958 41.0409C34.9999 41.123 35.0081 41.1928 35.0122 41.2626C35.0163 41.32 35.0204 41.3734 35.0245 41.4308C35.0533 41.948 35.1969 42.4487 35.4473 42.9248C35.6566 43.3188 35.8946 43.7252 36.3174 44.0084C36.617 44.2095 36.9823 44.3408 37.4584 44.4229C37.6061 44.4475 37.758 44.4681 37.9017 44.4886L38.0207 44.505C38.1397 44.5214 38.271 44.5296 38.4024 44.5296C38.8005 44.5296 39.2438 44.4516 39.687 44.308C40.4053 44.074 40.9963 43.5199 41.3493 42.7442C41.731 41.9069 41.8213 41.0081 41.612 40.0764C41.4683 39.4238 41.1564 38.8985 40.6926 38.5168L40.7008 38.5127Z" fill="#D9D9D9"/>
<path d="M76.9958 34.5889C76.9958 34.5396 76.9958 34.4001 76.8932 34.2934C76.7988 34.199 76.6756 34.1866 76.5936 34.1866C75.5593 34.1866 74.5291 34.1866 73.4948 34.1866C72.4605 34.1866 71.4878 34.1866 70.4822 34.1866C70.4289 34.1866 70.2688 34.1866 70.1498 34.3057C70.043 34.4124 70.0307 34.5519 70.0348 34.6586C70.043 35.3071 70.043 35.8366 70.0348 36.3291C70.0348 36.4194 70.0431 36.5548 70.1416 36.6575C70.2401 36.756 70.3673 36.7683 70.4658 36.7683H70.4781C70.5602 36.7683 70.6382 36.7683 70.7203 36.7683C70.8762 36.7683 71.0322 36.7683 71.1841 36.7683C71.34 36.7683 71.496 36.7683 71.6519 36.7683C71.849 36.7683 72.009 36.7683 72.165 36.7601H72.1896C72.1896 36.7601 72.1896 36.7847 72.1896 36.8011C72.1896 38.0324 72.1896 39.2842 72.1978 40.4909C72.1978 41.6483 72.206 42.8468 72.206 44.0206C72.206 44.3325 72.362 44.4926 72.6657 44.4926H72.6944C72.9982 44.4844 73.2773 44.4844 73.544 44.4844C73.8108 44.4844 74.0858 44.4844 74.3362 44.4967H74.3649C74.4634 44.4967 74.6071 44.4844 74.7179 44.3736C74.841 44.2505 74.841 44.0699 74.841 43.9837C74.8328 43.0807 74.8328 42.1573 74.8369 41.2666C74.8369 40.9629 74.8369 40.6633 74.8369 40.3596C74.8369 40.0558 74.8369 39.7439 74.8369 39.432C74.8369 38.5331 74.8369 37.6014 74.8287 36.6862C75.1653 36.6944 75.4936 36.6944 75.8589 36.6944H75.9984C76.1872 36.6944 76.3801 36.6944 76.5689 36.6944H76.5977C76.6592 36.6944 76.7947 36.6944 76.8973 36.5918C76.9671 36.522 77.004 36.4235 76.9999 36.2963C76.9917 35.6806 76.9958 35.0814 76.9999 34.5766L76.9958 34.5889Z" fill="#D9D9D9"/>
<path d="M42.0714 34.6792C43.4012 34.6792 44.7269 34.671 46.0567 34.6833C46.9515 34.6915 47.6287 35.0814 47.9571 35.9351C48.1705 36.4892 48.2197 37.072 48.1253 37.6712C48.0556 38.1186 47.916 38.5126 47.6164 38.8533C47.4645 39.0257 47.288 39.1652 47.0418 39.2719C47.5056 39.4772 47.8996 39.707 48.1376 40.138C48.3305 40.4868 48.4126 40.8521 48.4701 41.242C48.5563 41.8371 48.4865 42.4076 48.3018 42.9617C48.0391 43.7457 47.5302 44.2382 46.6683 44.4065C46.0239 44.5337 45.3918 44.4967 44.7557 44.505C43.9225 44.5214 43.0893 44.5009 42.2561 44.5132C42.0632 44.5132 42.0304 44.4639 42.0345 44.2874C42.0386 41.0984 42.0345 37.9093 42.0345 34.7202C42.0468 34.7079 42.0591 34.6915 42.0755 34.6792H42.0714ZM44.2221 41.3857C44.2221 41.673 44.2221 41.9603 44.2221 42.2476C44.2221 42.3256 44.2139 42.3994 44.3288 42.3994C44.7721 42.3871 45.2195 42.4405 45.6627 42.3625C45.8064 42.3379 45.9377 42.2763 46.0403 42.1737C46.1922 42.03 46.2743 41.8371 46.3194 41.6319C46.3523 41.4719 46.3687 41.3077 46.3317 41.1435C46.2907 40.9629 46.1881 40.7495 46.0485 40.6264C45.9172 40.5073 45.7325 40.4663 45.5642 40.4376C45.3098 40.3924 45.0512 40.4006 44.7967 40.4088C44.6449 40.4088 44.4889 40.417 44.337 40.4088C44.2057 40.4006 44.2221 40.495 44.2221 40.5771V41.3898V41.3857ZM44.2221 37.5974C44.2221 37.8518 44.2262 38.1063 44.2221 38.3608C44.2221 38.4839 44.2508 38.5373 44.3863 38.5332C44.6982 38.5208 45.0142 38.525 45.3262 38.525C45.5232 38.525 45.6833 38.4429 45.8228 38.3033C46.1306 37.9955 46.0526 37.6056 46.0075 37.2444C45.9747 36.9735 45.7859 36.797 45.478 36.7273C45.0922 36.637 44.7105 36.7067 44.3288 36.678C44.2098 36.6698 44.2303 36.7601 44.2262 36.834C44.2262 37.0884 44.2262 37.3429 44.2262 37.5974H44.2221Z" fill="#D9D9D9"/>
<path d="M61.9209 39.0297C62.4217 39.161 62.7418 39.4688 63.0004 39.8259C63.2384 40.1543 63.3082 40.5565 63.3739 40.9628C63.456 41.5005 63.4108 42.0217 63.259 42.5225C62.9552 43.5075 62.4873 43.9877 61.4941 44.156C60.6158 44.3038 59.7415 44.2258 58.8673 44.2463C58.2804 44.2627 57.6976 44.2463 57.1107 44.2504C56.9834 44.2504 56.9219 44.2381 56.9219 44.0821C56.9301 40.9341 56.9342 37.7902 56.9301 34.6422C56.9301 34.4451 56.9958 34.4164 57.1681 34.4205C58.4241 34.4287 59.6759 34.4123 60.9277 34.4287C61.4982 34.4369 62.0318 34.5601 62.4463 35.0115C62.7377 35.3317 62.9265 35.7093 63.0004 36.1156C63.1276 36.7846 63.1235 37.4536 62.8362 38.098C62.6556 38.5084 62.3683 38.8081 61.9168 39.0297H61.9209ZM59.1218 41.1434C59.1218 41.4225 59.1259 41.7016 59.1218 41.9807C59.1218 42.0956 59.1546 42.1408 59.2737 42.1408C59.6102 42.1326 59.9509 42.149 60.2874 42.1367C60.8333 42.1161 61.1247 41.9273 61.215 41.3527C61.2889 40.8889 61.2027 40.3841 60.6404 40.224C60.1725 40.0927 59.6964 40.1748 59.2244 40.1543C59.1054 40.1502 59.1218 40.2364 59.1218 40.3061V41.1434ZM59.1218 37.351C59.1218 37.6055 59.1259 37.86 59.1218 38.1144C59.1218 38.2417 59.1546 38.2868 59.286 38.2827C59.5322 38.2745 59.7785 38.2827 60.0247 38.2827C60.6158 38.2827 60.8415 38.1021 60.9728 37.5316C61.0796 37.076 60.8128 36.5794 60.3613 36.4645C59.9837 36.3701 59.5938 36.4357 59.208 36.4275C59.1095 36.4275 59.1218 36.5055 59.1218 36.5712C59.1218 36.8339 59.1218 37.0965 59.1218 37.3592V37.351Z" fill="#D9D9D9"/>
<path d="M52.5611 34.474C53.3081 34.4494 54.0428 34.6505 54.6256 35.1266C55.1263 35.533 55.4834 36.0993 55.7091 36.6986C56.0375 37.5687 56.1401 38.5455 56.1155 39.469C56.0949 40.3514 55.9841 41.279 55.6558 42.104C55.4465 42.6334 55.1263 43.1178 54.7118 43.5159C54.3014 43.9058 53.8047 44.1151 53.2753 44.2259C52.713 44.3449 52.1425 44.2998 51.572 44.152C50.8455 43.9673 50.3119 43.5569 49.8974 42.9618C49.3803 42.2271 49.1176 41.3939 49.0191 40.5156C48.9575 39.9738 48.9206 39.4198 48.9739 38.878C49.0396 38.1761 49.0724 37.4538 49.3515 36.7848C49.684 35.9885 50.1067 35.258 50.9112 34.8188C51.4406 34.5315 52.0029 34.4453 52.5693 34.4699L52.5611 34.474ZM53.9894 39.4115C54.0017 38.759 53.8376 37.8026 53.6529 37.4086C53.4148 36.9038 52.7786 36.5919 52.4052 36.6493C51.9085 36.7314 51.5802 37.0351 51.3873 37.4866C51.1698 37.9955 51.1082 38.5291 51.1123 39.0791C51.1164 39.7071 51.0836 40.335 51.2806 40.9466C51.4365 41.4309 51.6828 41.8454 52.204 42.0178C52.8648 42.2353 53.5379 41.8085 53.7432 41.123C53.9073 40.569 54.0182 39.9985 53.9894 39.4156V39.4115Z" fill="#D9D9D9"/>
<path d="M63.9565 39.3214C63.9565 37.7699 63.9565 36.2144 63.9565 34.663C63.9565 34.4865 63.9893 34.4249 64.1822 34.429C65.9388 34.4372 67.6955 34.4372 69.4521 34.429C69.6286 34.429 69.6697 34.4824 69.6656 34.6507C69.6574 35.2088 69.6533 35.767 69.6656 36.3252C69.6697 36.5017 69.6122 36.5428 69.4439 36.5387C68.4138 36.5304 67.3795 36.5428 66.3493 36.5263C66.1194 36.5263 66.0784 36.592 66.0866 36.8013C66.103 37.1625 66.103 37.5237 66.0866 37.8849C66.0784 38.049 66.1317 38.086 66.2918 38.086C67.2481 38.0778 68.2044 38.086 69.1607 38.0778C69.3536 38.0778 69.4152 38.1188 69.407 38.3199C69.3906 38.8289 69.3906 39.3378 69.407 39.8467C69.4152 40.0602 69.3413 40.0971 69.1443 40.0971C68.2044 40.0848 67.2645 40.0971 66.3246 40.0848C66.1194 40.0848 66.0825 40.1464 66.0866 40.331C66.0989 40.84 66.0948 41.3489 66.0866 41.8579C66.0866 41.9933 66.1317 42.0385 66.2549 42.0179C66.5873 41.9605 66.9157 42.0302 67.244 42.022C68.0115 42.0056 68.779 42.022 69.5465 42.0138C69.7189 42.0138 69.7682 42.059 69.7641 42.2314C69.7518 42.8388 69.7559 43.4462 69.7641 44.0537C69.7641 44.2055 69.7271 44.2466 69.5712 44.2466C67.7653 44.2425 65.9594 44.2384 64.1535 44.2466C63.9647 44.2466 63.9482 44.1768 63.9482 44.0208C63.9523 42.453 63.9482 40.881 63.9482 39.3132L63.9565 39.3214Z" fill="#D9D9D9"/>
<path d="M38.4343 34.4292C38.8447 34.4087 39.2921 34.4703 39.6861 34.6262C40.2484 34.8438 40.6834 35.2624 40.9297 35.8411C41.0898 36.2146 41.1513 36.6168 41.2334 37.0109C41.2827 37.2448 41.0898 37.2735 40.9502 37.2817C40.4536 37.3105 39.9611 37.331 39.4727 37.4377C39.3085 37.4747 39.2141 37.4336 39.1895 37.2161C39.1279 36.6743 38.9514 36.2967 38.2824 36.2146C37.9294 36.1695 37.6298 36.2844 37.4903 36.6989C37.3836 37.0191 37.5231 37.372 37.8309 37.5239C38.2783 37.7455 38.7749 37.844 39.2387 38.0205C39.7025 38.197 40.154 38.3899 40.5398 38.706C40.9913 39.0753 41.2539 39.5679 41.3771 40.1302C41.57 40.9921 41.4961 41.8417 41.1308 42.642C40.8271 43.3028 40.3182 43.8446 39.6163 44.0744C39.132 44.2304 38.5697 44.3289 38.0608 44.2591C37.8761 44.2345 37.6914 44.2099 37.5067 44.1811C37.1373 44.1196 36.7761 44.0128 36.4642 43.8035C36.0866 43.5532 35.8732 43.1838 35.6721 42.8103C35.4422 42.3793 35.3027 41.9114 35.278 41.4189C35.2698 41.2917 35.2575 41.1809 35.2493 41.029C35.2452 40.951 35.2862 40.9428 35.3519 40.9387C35.8567 40.9059 36.3616 40.8607 36.8664 40.8484C37.0224 40.8361 37.1865 40.8238 37.2522 40.832C37.2727 40.9305 37.2851 41.0906 37.3179 41.2301C37.3753 41.4887 37.4697 41.7185 37.6093 41.9361C37.8268 42.2726 38.1552 42.4491 38.5328 42.4081C38.935 42.3629 39.2387 42.1413 39.3618 41.7062C39.5178 41.1644 39.2141 40.6186 38.5902 40.4051C38.1223 40.2451 37.638 40.1219 37.1989 39.8921C36.4026 39.4776 35.7911 38.9194 35.5859 37.9754C35.434 37.2817 35.4791 36.6374 35.7336 35.993C36.0455 35.2009 36.616 34.7042 37.4574 34.536C37.7694 34.4703 38.0895 34.4374 38.4384 34.4416L38.4343 34.4292Z" fill="#D9D9D9"/>
<path d="M74.583 40.3678C74.583 41.5745 74.5789 42.7853 74.5871 43.992C74.5871 44.189 74.5502 44.2629 74.3368 44.2546C73.7868 44.2382 73.2327 44.2423 72.6786 44.2546C72.498 44.2546 72.4447 44.2177 72.4447 44.0289C72.4447 41.6197 72.4324 39.2145 72.4324 36.8094C72.4324 36.5919 72.3872 36.5139 72.1533 36.5221C71.591 36.5385 71.0328 36.5221 70.4705 36.5221C70.3227 36.5221 70.2735 36.4893 70.2776 36.3333C70.2899 35.7751 70.2858 35.2169 70.2776 34.6587C70.2776 34.5069 70.3104 34.433 70.4787 34.433C72.5144 34.433 74.5543 34.433 76.59 34.433C76.7091 34.433 76.746 34.4658 76.746 34.5848C76.7419 35.1594 76.7378 35.7341 76.746 36.3087C76.746 36.4605 76.6721 36.4564 76.5654 36.4564C75.9785 36.4564 75.3957 36.4564 74.8088 36.4482C74.6364 36.4482 74.5707 36.4687 74.5748 36.6698C74.5871 37.9011 74.5789 39.1324 74.5789 40.3678H74.583Z" fill="#D9D9D9"/>
<path d="M68.9392 14.4695C68.8448 14.0878 68.5657 13.5912 67.753 13.3983L67.6668 13.3778C67.4944 13.3367 67.3015 13.2875 67.0922 13.2875C66.7762 13.2875 66.4971 13.3983 66.259 13.6117C64.8184 14.9005 63.4681 15.6762 62.0151 16.0415C61.9331 16.062 61.8551 16.0743 61.7935 16.0743C61.695 16.0743 61.5431 16.0743 61.3872 15.6844C61.3502 15.59 61.3174 15.4792 61.2846 15.3602C61.2312 15.1673 61.1656 14.9415 61.0465 14.724C61.067 14.6994 61.0835 14.6747 61.0999 14.6624C61.498 14.3464 61.8838 14.0139 62.2573 13.6897C62.8442 13.1808 63.4476 12.6554 64.0878 12.2203C64.2192 12.13 64.4408 11.9782 64.4777 11.6909C64.5147 11.3913 64.3136 11.1614 64.2274 11.0629C63.9237 10.7182 63.624 10.5786 63.2629 10.4801C62.8401 10.3611 62.4133 10.2995 61.9987 10.2995C61.3092 10.2995 60.6402 10.4596 59.9507 10.7879C59.6428 10.9357 59.3638 11.1122 59.0929 11.2805C58.9697 11.3584 58.8507 11.4323 58.7276 11.5021C58.7153 11.4898 58.7071 11.4775 58.6947 11.4651C58.1407 10.8782 57.6194 10.4596 57.053 10.1436C55.9572 9.53611 54.8941 9.2406 53.8024 9.2406C53.4699 9.2406 53.1293 9.26933 52.7886 9.32679C51.4383 9.55253 50.129 10.1436 48.791 11.1327C48.1015 11.6416 47.4448 12.2819 46.7306 13.1438C46.5747 13.3326 46.509 13.5255 46.5295 13.7225C46.55 13.9154 46.6567 14.0837 46.8414 14.2274C47.5638 14.7855 48.1507 15.1303 48.8361 15.1303C49.3574 15.1303 49.8745 14.9292 50.5189 14.4818C50.8226 14.2725 51.0812 14.018 51.3316 13.7759C51.3931 13.7184 51.4506 13.661 51.5122 13.6035C51.6353 13.4845 51.7543 13.3655 51.8775 13.2464C52.1524 12.9714 52.4151 12.7129 52.7065 12.4912C53.0267 12.2491 53.3386 12.1342 53.6834 12.1342C53.7244 12.1342 53.7654 12.1342 53.8065 12.1383C54.3031 12.1752 54.7956 12.5897 54.9352 13.0823C55.005 13.3326 54.9557 13.5501 54.4919 13.9072C53.6957 14.527 52.9856 15.1016 52.4233 15.8732C52.3577 15.9635 52.292 16.0497 52.2263 16.14C51.7133 16.8295 51.1838 17.5437 50.8883 18.422C50.5846 19.3208 50.8308 20.0966 51.6025 20.6629C51.8036 20.8107 52.0088 20.9379 52.2099 21.0611C52.3577 21.1514 52.4931 21.2376 52.6285 21.3279C52.8625 21.4838 52.9446 21.648 52.9323 21.9066C52.9035 22.3786 52.6327 22.7562 52.3207 23.1912L52.3125 23.1994C51.6271 24.1557 50.7036 24.8699 49.7309 25.6292L49.6037 25.7277C49.1522 26.0725 48.6884 26.4336 48.3683 26.9918C47.9209 27.7799 48.0194 28.4694 48.6473 29.0029C46.8702 30.1111 44.9042 30.8704 43.0244 31.5558L43.2419 32.4875C43.2912 32.4834 43.3446 32.4793 43.4102 32.4793C43.4841 32.4793 43.558 32.4793 43.6278 32.4834C43.7139 32.4834 43.796 32.4916 43.8822 32.4916C44.0669 32.4916 44.2188 32.4752 44.3583 32.4424L44.3912 32.4342C45.5814 32.1592 46.8086 31.8801 47.966 31.3465C48.2041 31.6584 48.4955 31.7077 48.6597 31.7077C48.9018 31.7077 49.1399 31.6092 49.3902 31.3999C49.5421 31.2767 49.7022 31.1659 49.8622 31.0674C49.8622 31.0921 49.8622 31.1208 49.8581 31.1495V31.7652L50.4533 31.6215C51.2823 31.4245 51.9677 31.0059 52.5752 30.6406C54.1184 29.7048 55.4564 28.5022 56.7452 27.3407C57.09 27.0288 57.447 26.7086 57.8041 26.4008C58.3295 25.9411 58.7932 25.424 59.2406 24.9273C59.5402 24.5908 59.8522 24.246 60.1723 23.93C60.7387 23.3677 60.8906 22.6741 60.6402 21.804C60.279 20.5644 59.4951 19.6533 58.8548 18.9966C58.4239 18.5574 58.2843 18.3604 58.4485 17.9828C59.2652 18.6641 60.1723 19.0089 61.1409 19.0089C61.3297 19.0089 61.5226 18.9966 61.7155 18.9679C62.8319 18.8119 63.9688 18.4015 65.2001 17.7078C65.5613 17.5026 65.9225 17.3015 66.2837 17.0963C66.9444 16.7228 67.6299 16.3411 68.303 15.9553C68.853 15.6434 69.091 15.0893 68.9433 14.4818L68.9392 14.4695Z" fill="#D9D9D9"/>
<path d="M58.7187 12.0524C59.2071 11.7938 59.6463 11.4573 60.147 11.2192C61.1115 10.7596 62.076 10.6487 63.1185 10.9401C63.4346 11.0304 63.6316 11.1289 63.8491 11.3793C64.0625 11.6256 64.0051 11.683 63.7998 11.8226C62.7245 12.5573 61.801 13.4807 60.7832 14.2893C60.6395 14.4001 60.5533 14.5848 60.4425 14.7325C59.6175 15.4631 58.9157 16.2963 58.3165 17.2198C57.6844 18.1474 57.7501 18.5455 58.5011 19.313C59.2317 20.06 59.8679 20.8808 60.1716 21.9192C60.3563 22.5472 60.3071 23.1013 59.831 23.5692C59.0265 24.3654 58.337 25.2725 57.4833 26.0236C55.8128 27.4847 54.2326 29.0526 52.32 30.2141C51.7044 30.5876 51.0846 30.9611 50.3376 31.1417C50.3376 30.9323 50.5264 30.8995 50.5634 30.7764C50.6003 30.645 50.7932 30.5014 50.666 30.3988C50.5429 30.3003 50.3417 30.2428 50.1529 30.3413C49.7753 30.5342 49.4101 30.7435 49.0776 31.0185C48.8108 31.2361 48.5071 31.3469 48.2814 30.9405C48.1459 30.7025 47.9448 30.8092 47.793 30.879C46.6602 31.4084 45.4494 31.6834 44.2427 31.9584C43.8979 32.0364 43.5327 31.9584 43.1797 31.9913C45.4042 31.1786 47.5713 30.3249 49.5168 28.9869C49.6727 28.9869 49.7836 28.8884 49.9067 28.8145C51.1544 28.0388 52.2954 27.1276 53.3789 26.1426C54.4009 25.2109 55.3531 24.2094 56.1699 23.0931C56.8553 22.1573 56.765 21.1969 55.7964 20.5032C55.3901 20.2159 55.0002 19.8999 54.6759 19.5182C54.1916 18.9436 54.0151 18.3074 54.2819 17.5727C54.5282 16.8914 54.8483 16.2676 55.3203 15.7012C56.3176 14.5027 57.3027 13.296 58.534 12.3192C58.6243 12.2453 58.7023 12.1714 58.7187 12.0524Z" fill="#D9D9D9"/>
<path d="M58.7184 12.0522C58.702 12.1753 58.624 12.2492 58.5337 12.319C57.3024 13.2958 56.3174 14.4984 55.32 15.7009C54.848 16.2673 54.5279 16.8912 54.2816 17.5725C54.0148 18.3072 54.1913 18.9433 54.6756 19.518C54.9999 19.9038 55.3898 20.2157 55.7961 20.503C56.7647 21.1966 56.855 22.157 56.1696 23.0928C55.3528 24.2092 54.4006 25.2107 53.3787 26.1423C52.2992 27.1274 51.1541 28.0385 49.9064 28.8143C49.7833 28.8922 49.6725 28.9866 49.5165 28.9866C49.4057 28.921 49.2949 28.8594 49.1881 28.7896C48.5232 28.3669 48.396 27.8867 48.7777 27.2095C49.0732 26.6923 49.5493 26.3517 50.0049 25.9987C50.9858 25.2394 51.9668 24.4801 52.6932 23.4622C53.0257 22.9984 53.3622 22.5346 53.3992 21.919C53.4279 21.4634 53.2391 21.1515 52.8861 20.9134C52.5537 20.6877 52.1966 20.4948 51.8724 20.2608C51.2608 19.8135 51.0926 19.2635 51.3306 18.5616C51.6384 17.6464 52.2336 16.9117 52.7958 16.1483C53.3458 15.4013 54.0518 14.839 54.7741 14.2808C55.2215 13.932 55.5499 13.5379 55.3857 12.9469C55.1887 12.2369 54.495 11.7033 53.826 11.6541C53.2843 11.613 52.8205 11.7813 52.3977 12.1014C51.9463 12.4421 51.5728 12.8648 51.1664 13.2506C50.8627 13.5379 50.5713 13.8458 50.2347 14.0838C48.9747 14.9621 48.3139 14.7569 47.1278 13.8417C46.9677 13.7185 46.9595 13.6077 47.0949 13.4477C47.686 12.7376 48.3303 12.0645 49.0732 11.5186C50.206 10.6813 51.4373 10.0411 52.8615 9.80301C54.2857 9.56496 55.5704 9.88099 56.8058 10.5664C57.3886 10.8907 57.877 11.3175 58.3285 11.7936C58.4352 11.9085 58.5337 12.044 58.7184 12.0522Z" fill="#D9D9D9"/>
<path d="M58.7184 12.0522C58.702 12.1753 58.624 12.2492 58.5337 12.319C57.3024 13.2958 56.3174 14.4984 55.32 15.7009C54.848 16.2673 54.5279 16.8912 54.2816 17.5725C54.0148 18.3072 54.1913 18.9433 54.6756 19.518C54.9999 19.9038 55.3898 20.2157 55.7961 20.503C56.7647 21.1966 56.855 22.157 56.1696 23.0928C55.3528 24.2092 54.4006 25.2107 53.3787 26.1423C52.2992 27.1274 51.1541 28.0385 49.9064 28.8143C49.7833 28.8922 49.6725 28.9866 49.5165 28.9866C49.4057 28.921 49.2949 28.8594 49.1881 28.7896C48.5232 28.3669 48.396 27.8867 48.7777 27.2095C49.0732 26.6923 49.5493 26.3517 50.0049 25.9987C50.9858 25.2394 51.9668 24.4801 52.6932 23.4622C53.0257 22.9984 53.3622 22.5346 53.3992 21.919C53.4279 21.4634 53.2391 21.1515 52.8861 20.9134C52.5537 20.6877 52.1966 20.4948 51.8724 20.2608C51.2608 19.8135 51.0926 19.2635 51.3306 18.5616C51.6384 17.6464 52.2336 16.9117 52.7958 16.1483C53.3458 15.4013 54.0518 14.839 54.7741 14.2808C55.2215 13.932 55.5499 13.5379 55.3857 12.9469C55.1887 12.2369 54.495 11.7033 53.826 11.6541C53.2843 11.613 52.8205 11.7813 52.3977 12.1014C51.9463 12.4421 51.5728 12.8648 51.1664 13.2506C50.8627 13.5379 50.5713 13.8458 50.2347 14.0838C48.9747 14.9621 48.3139 14.7569 47.1278 13.8417C46.9677 13.7185 46.9595 13.6077 47.0949 13.4477C47.686 12.7376 48.3303 12.0645 49.0732 11.5186C50.206 10.6813 51.4373 10.0411 52.8615 9.80301C54.2857 9.56496 55.5704 9.88099 56.8058 10.5664C57.3886 10.8907 57.877 11.3175 58.3285 11.7936C58.4352 11.9085 58.5337 12.044 58.7184 12.0522Z" fill="#D9D9D9"/>
<path d="M58.3213 17.2194C58.9164 16.2959 59.6183 15.4627 60.4473 14.7322C60.7552 15.0482 60.7757 15.4833 60.9275 15.865C61.1615 16.4437 61.5268 16.6612 62.1301 16.5093C63.8457 16.0743 65.2781 15.1303 66.5751 13.9688C66.924 13.6568 67.2769 13.78 67.6422 13.8662C68.0403 13.9606 68.3687 14.1658 68.4713 14.5803C68.5698 14.9784 68.422 15.315 68.0609 15.5202C67.0307 16.1071 65.9923 16.6858 64.958 17.2686C63.9196 17.8515 62.8278 18.307 61.6458 18.4712C60.5294 18.6272 59.5362 18.266 58.6866 17.5313C58.5675 17.4287 58.4485 17.322 58.3254 17.2153L58.3213 17.2194Z" fill="#D9D9D9"/>
</g>
<defs>
<clipPath id="clip0_9204_18833">
<rect width="41.9996" height="35.5189" fill="white" transform="translate(35 9.2406)"/>
</clipPath>
</defs>
</svg>
