<svg width="112" height="54" viewBox="0 0 112 54" fill="none" xmlns="http://www.w3.org/2000/svg">
<rect width="112" height="54" rx="1" fill="#141210"/>
<g clip-path="url(#clip0_9204_18799)">
<g clip-path="url(#clip1_9204_18799)">
<path d="M47.6922 39.2901C47.2309 39.2901 46.8329 39.1273 46.5073 38.7971C46.1816 38.467 46.0188 38.0644 46.0188 37.6031C46.0188 37.1418 46.1816 36.7393 46.5073 36.4091C46.8329 36.079 47.2354 35.9161 47.6922 35.9161H49.5601V37.0966H47.6922C47.5565 37.0966 47.4389 37.1418 47.353 37.2458C47.2626 37.3363 47.2038 37.4539 47.2038 37.5895C47.2038 37.7252 47.249 37.8428 47.353 37.9333C47.4435 38.0237 47.5611 38.0825 47.6922 38.0825H48.2847C48.746 38.0825 49.144 38.2453 49.4696 38.5755C49.7953 38.9057 49.9581 39.3082 49.9581 39.7695C49.9581 40.2308 49.7953 40.6333 49.4696 40.9635C49.144 41.2937 48.7415 41.4565 48.2847 41.4565H46.4168V40.276H48.2847C48.4204 40.276 48.538 40.2308 48.6239 40.1268C48.7144 40.0363 48.7731 39.9187 48.7731 39.7831C48.7731 39.6474 48.7279 39.5298 48.6239 39.4393C48.5334 39.3489 48.4159 39.2901 48.2847 39.2901H47.6922ZM55.7788 41.47V35.9342H58.0357C58.497 35.9342 58.895 36.097 59.2252 36.4272C59.5508 36.7574 59.7136 37.1599 59.7136 37.6212C59.7136 38.0373 59.5779 38.3991 59.3111 38.7112C59.5779 39.0097 59.6955 39.3805 59.6955 39.8012C59.6955 40.2625 59.5327 40.665 59.2071 40.9952C58.8814 41.3253 58.4789 41.4881 58.0176 41.4881L55.7788 41.4746V41.47ZM56.9502 37.1147V38.1006H58.0357C58.1714 38.1006 58.289 38.0554 58.3749 37.9514C58.4653 37.8609 58.5241 37.7433 58.5241 37.6076C58.5241 37.472 58.4789 37.3544 58.3749 37.2639C58.2844 37.1735 58.1668 37.1147 58.0357 37.1147H56.9502ZM56.9502 39.2946V40.2806H58.0176C58.1533 40.2806 58.2709 40.2353 58.3613 40.1313C58.4518 40.0409 58.5106 39.9233 58.5106 39.7876C58.5106 39.6519 58.4653 39.5343 58.3613 39.4439C58.2709 39.3534 58.1533 39.2946 58.0176 39.2946H56.9502ZM50.7315 39.7876L52.8526 35.9252L55.8648 41.461H54.4989L53.1783 39.0006L50.7315 39.7921V39.7876ZM49.8405 41.4565L50.2702 40.6198L51.93 40.0997L51.2018 41.4565H49.836H49.8405ZM60.5232 39.7876L62.6443 35.9252L65.6565 41.461H64.2906L62.97 39.0006L60.5232 39.7921V39.7876ZM59.6322 41.4565L60.0619 40.6198L61.7217 40.0997L60.9935 41.4565H59.6277H59.6322ZM47.2264 44.8892C46.8872 44.8892 46.6022 44.7716 46.3671 44.5319C46.1274 44.2922 46.0098 44.0118 46.0098 43.6681C46.0098 43.3244 46.1274 43.0394 46.3671 42.8042C46.6022 42.5645 46.8872 42.4469 47.2264 42.4469H48.5787V43.3108H47.2264C47.1224 43.3108 47.05 43.3424 46.9731 43.4148C46.9007 43.4872 46.8691 43.5641 46.8691 43.6681C46.8691 43.7721 46.9007 43.849 46.9731 43.9214C47.0455 43.9937 47.1224 44.0254 47.2264 44.0254H47.656C47.9952 44.0254 48.2802 44.143 48.5154 44.3827C48.7551 44.6224 48.8726 44.9028 48.8726 45.2465C48.8726 45.5902 48.7551 45.8752 48.5154 46.1104C48.2802 46.3501 47.9952 46.4676 47.656 46.4676H46.3037V45.6038H47.656C47.7601 45.6038 47.8324 45.5721 47.9093 45.4998C47.9817 45.4274 48.0133 45.3505 48.0133 45.2465C48.0133 45.1425 47.9817 45.0656 47.9093 44.9932C47.8369 44.9209 47.7601 44.8892 47.656 44.8892H47.2264ZM50.1209 44.8892V46.4722H49.2752V42.4424H50.9079C51.2471 42.4424 51.532 42.56 51.7672 42.7997C52.0069 43.0394 52.1245 43.3198 52.1245 43.6636C52.1245 44.0073 52.0069 44.2922 51.7672 44.5274C51.532 44.7671 51.2471 44.8847 50.9079 44.8847H50.1209V44.8892ZM50.1209 43.3063V44.0209H50.9079C51.0119 44.0209 51.0843 43.9892 51.1611 43.9168C51.2335 43.8445 51.2652 43.7676 51.2652 43.6636C51.2652 43.5595 51.2335 43.4827 51.1611 43.4103C51.0888 43.3379 51.0119 43.3063 50.9079 43.3063H50.1209ZM57.7643 44.8892V46.4722H56.905V42.4424H58.5377C58.8769 42.4424 59.1618 42.56 59.397 42.7997C59.6322 43.0394 59.7543 43.3198 59.7543 43.6636C59.7543 44.0073 59.6367 44.2922 59.397 44.5274C59.3066 44.6179 59.2025 44.7083 59.085 44.749L59.9036 46.4496H58.9538L58.1985 44.8666L57.7688 44.8802L57.7643 44.8892ZM57.7643 43.3063V44.0209H58.5513C58.6553 44.0209 58.7277 43.9892 58.8045 43.9168C58.8769 43.8445 58.9086 43.7676 58.9086 43.6636C58.9086 43.5595 58.8769 43.4827 58.8045 43.4103C58.7322 43.3379 58.6553 43.3063 58.5513 43.3063H57.7643ZM61.8755 43.3063V46.4541H61.0162V43.3063H60.1568V42.4424H62.7257V43.3063H61.88H61.8755ZM64.3404 44.8892C64.0012 44.8892 63.7162 44.7716 63.481 44.5319C63.2413 44.2922 63.1237 44.0118 63.1237 43.6681C63.1237 43.3244 63.2413 43.0394 63.481 42.8042C63.7162 42.5645 64.0012 42.4469 64.3404 42.4469H65.6926V43.3108H64.3404C64.2363 43.3108 64.164 43.3424 64.0871 43.4148C64.0147 43.4872 63.9831 43.5641 63.9831 43.6681C63.9831 43.7721 64.0147 43.849 64.0871 43.9214C64.1594 43.9937 64.2363 44.0254 64.3404 44.0254H64.77C65.1092 44.0254 65.3941 44.143 65.6293 44.3827C65.869 44.6224 65.9866 44.9028 65.9866 45.2465C65.9866 45.5902 65.869 45.8752 65.6293 46.1104C65.3941 46.3501 65.1092 46.4676 64.77 46.4676H63.4177V45.6038H64.77C64.874 45.6038 64.9464 45.5721 65.0233 45.4998C65.0956 45.4274 65.1273 45.3505 65.1273 45.2465C65.1273 45.1425 65.0956 45.0656 65.0233 44.9932C64.9509 44.9209 64.874 44.8892 64.77 44.8892H64.3404ZM53.9517 43.4555L53.0155 43.1434C52.8843 43.2927 52.7803 43.4555 52.7034 43.6229L53.522 43.8897C53.626 43.7088 53.7753 43.5595 53.9517 43.4555ZM53.4451 44.8123C53.4316 44.7807 53.4316 44.7535 53.4135 44.7219C53.4135 44.6902 53.3999 44.6767 53.3999 44.6495C53.3863 44.5319 53.3682 44.4098 53.3863 44.2922L52.5722 44.0254C52.5406 44.1746 52.527 44.3103 52.527 44.4731V44.6088L53.4632 44.9209C53.4632 44.8757 53.4632 44.8485 53.4496 44.8169L53.4451 44.8123ZM55.9371 43.0349C55.5527 42.6459 55.0778 42.4515 54.5261 42.4515C54.0828 42.4515 53.6939 42.5691 53.3682 42.8223L53.9019 43.0032L54.9105 43.347C55.521 43.555 55.8467 44.2108 55.6522 44.8259C55.4442 45.4365 54.7929 45.7666 54.1823 45.5722L52.6672 45.0656L52.622 45.052C52.7124 45.3641 52.8753 45.649 53.1285 45.8887C53.513 46.2777 53.9878 46.4722 54.5396 46.4722C55.0914 46.4722 55.5618 46.2777 55.9507 45.8887C56.3351 45.4998 56.5296 45.0249 56.5296 44.4731C56.516 43.9078 56.3216 43.4284 55.9371 43.0394V43.0349Z" fill="#D9D9D9"/>
<path d="M47.2319 20.1503C47.1641 20.7382 47.1641 21.29 47.1641 21.8779C47.1641 23.4338 47.3721 24.9534 47.7158 26.3735C50.0179 28.2414 52.7361 29.4852 55.6623 29.9691C56.4537 30.1093 57.2769 30.1771 58.0683 30.1771C59.6513 29.7972 61.1302 29.1414 62.469 28.3093C56.1417 28.2731 50.5697 25.0258 47.2319 20.1503Z" fill="#D9D9D9"/>
<path d="M46.4033 25.8217C46.7832 26.6493 47.2265 27.4815 47.7104 28.2775C47.7782 28.4177 47.8823 28.5217 47.9501 28.6574C47.7104 28.0016 47.5023 27.3413 47.3305 26.6538C47.0229 26.378 46.7109 26.1021 46.4033 25.8262V25.8217Z" fill="#D9D9D9"/>
<path d="M47.8828 27.1018C48.1587 28.0018 48.4662 28.9019 48.8823 29.7295C50.3974 30.2813 52.0482 30.6295 53.7669 30.6974C54.694 30.7336 55.5895 30.6974 56.485 30.5572C56.2091 30.521 55.9016 30.4893 55.6257 30.4532C52.7719 29.9692 50.1216 28.8295 47.8873 27.0973L47.8828 27.1018Z" fill="#D9D9D9"/>
<path d="M47.165 25.9618C46.8891 24.6456 46.7173 23.2979 46.7173 21.9184C46.7173 21.1586 46.7534 20.3988 46.8529 19.6345C45.9574 18.2189 45.2383 16.6947 44.7227 15.071C44.379 18.4586 44.7906 21.7782 45.962 24.7859C46.3735 25.2019 46.7534 25.6135 47.165 25.9618Z" fill="#D9D9D9"/>
<path d="M55.0737 21.0863H53.7305V22.2984H55.0737C55.2456 22.2984 55.3813 22.2306 55.5215 22.1265C55.6255 22.0225 55.6933 21.8506 55.6933 21.6788C55.6933 21.5069 55.6255 21.3667 55.5215 21.231C55.3858 21.1632 55.2456 21.0908 55.0737 21.0908V21.0863Z" fill="#D9D9D9"/>
<path d="M56.0013 7.53186C48.7106 7.53186 42.7949 13.4792 42.7949 20.8106C42.7949 23.583 43.6452 26.1564 45.0925 28.2866C45.3774 28.8203 45.6804 29.3449 45.997 29.8696C46.101 30.0414 46.2051 30.1817 46.3046 30.3173C46.196 30.0369 46.101 29.752 46.0106 29.4716C48.4348 32.2938 52.0077 34.0848 56.0013 34.0848C63.2919 34.0848 69.2076 28.1374 69.2076 20.8061C69.2076 13.4747 63.2557 7.53186 56.0013 7.53186ZM65.6663 23.886H64.0517L62.2291 20.4985L58.4119 21.8825L59.7189 19.5306L61.4738 16.315L65.6709 23.886H65.6663ZM61.0215 10.8154L64.6306 17.4547H62.9798L61.3969 14.5149L58.4752 15.4466L61.0215 10.8154ZM57.928 16.4507L59.9225 15.7949L59.027 17.4185H57.4124L57.928 16.4507ZM57.8601 22.882L59.8546 22.2262L58.9591 23.8498H57.3083L57.8601 22.882ZM57.1727 19.0784C57.1727 19.5985 57.0008 20.0462 56.6932 20.4261C57.0008 20.8061 57.1727 21.2538 57.1727 21.7739C57.1727 22.3619 56.9646 22.8458 56.553 23.2619C56.1415 23.678 55.6575 23.886 55.0741 23.886H52.2881V18.6306H53.767V19.7387H55.1103C55.2822 19.7387 55.4178 19.6708 55.558 19.5668C55.6621 19.4628 55.7299 19.2909 55.7299 19.1191C55.7299 18.9789 55.6259 18.7392 55.558 18.6351C56.1098 18.4949 56.5576 18.1874 56.8289 17.907C57.0008 18.2191 57.1727 18.6668 57.1727 19.0829V19.0784ZM56.2772 10.7475V12.2355H53.9027C53.7309 12.2355 53.5952 12.3033 53.455 12.4074C53.351 12.5476 53.2831 12.6832 53.2831 12.8551C53.2831 13.027 53.351 13.1672 53.455 13.3029C53.5907 13.4431 53.7309 13.4747 53.9027 13.4747H54.658C55.2415 13.4747 55.7254 13.6828 56.137 14.0989C56.5485 14.5149 56.7566 14.9989 56.7566 15.5868C56.7566 16.1748 56.5485 16.6587 56.137 17.0748C55.7254 17.4909 55.2415 17.6989 54.658 17.6989H52.2836V16.211H54.658C54.8299 16.211 54.9656 16.1431 55.1058 16.0391C55.2415 15.8989 55.2776 15.7632 55.2776 15.5914C55.2776 15.4195 55.2098 15.2793 55.1058 15.1436C54.9701 15.0034 54.8299 14.9717 54.658 14.9717H53.9027C53.3193 14.9717 52.8354 14.7637 52.4238 14.3476C52.0122 13.9315 51.8042 13.4476 51.8042 12.8596C51.8042 12.2717 52.0122 11.7877 52.4238 11.3717C52.8354 10.9556 53.3193 10.7475 53.9027 10.7475H56.2772ZM66.6297 28.1374C66.4578 28.4133 66.2498 28.6575 66.0779 28.8972C63.7035 30.0731 61.0577 30.7651 58.3395 30.7651H58.1315C56.9284 31.0772 55.653 31.2128 54.3505 31.2128H53.767C52.1841 31.145 50.6735 30.8691 49.2262 30.3852C50.1896 31.4932 51.2208 32.4611 52.3921 33.2888C51.9806 33.1486 51.5328 33.0129 51.1529 32.841C50.7413 32.4973 50.3298 32.1129 49.9137 31.7329C50.0856 32.0088 50.2574 32.2847 50.4293 32.5289C48.584 31.6289 46.9875 30.3173 45.7664 28.6937C45.703 28.4811 45.6442 28.2685 45.5854 28.0515C46.3407 28.5716 47.1322 29.0555 47.9825 29.4535C47.7744 29.1776 47.5709 28.8655 47.3991 28.5897C46.7116 27.4816 46.1282 26.3419 45.6442 25.1343C44.9568 24.4061 44.3372 23.6147 43.7854 22.7463C43.5457 22.4026 43.3376 22.0543 43.1341 21.7106C43.0979 21.4347 43.0979 21.1588 43.0979 20.8468C43.0979 18.4271 43.7492 16.1431 44.9206 14.2074C45.3684 15.9713 46.092 17.5949 46.983 19.1191C47.6342 14.8994 49.6649 11.1319 52.6228 8.33238C52.8987 8.26454 53.1746 8.19218 53.4505 8.12434C50.1851 11.0279 47.9146 15.0758 47.3267 19.6392C50.6283 24.6865 56.3043 28.0424 62.7673 28.0424H63.111C66.1729 25.8986 68.2714 22.6151 68.7508 18.8794C68.8548 19.5035 68.8865 20.1593 68.8865 20.8513C68.8865 23.5152 68.095 26.0027 66.6839 28.0786C65.5487 28.3228 64.4135 28.4585 63.2105 28.4947C62.1115 29.2545 60.9401 29.8786 59.6692 30.3264C62.1115 30.0822 64.4859 29.3223 66.6161 28.1464L66.6297 28.1374Z" fill="#D9D9D9"/>
</g>
</g>
<defs>
<clipPath id="clip0_9204_18799">
<rect x="4" y="7.19043" width="104" height="39.619" rx="0.825397" fill="white"/>
</clipPath>
<clipPath id="clip1_9204_18799">
<rect width="26.4127" height="38.9361" fill="white" transform="translate(42.7939 7.53186)"/>
</clipPath>
</defs>
</svg>
