<svg width="112" height="54" viewBox="0 0 112 54" fill="none" xmlns="http://www.w3.org/2000/svg">
<rect width="112" height="54" rx="1" fill="#141210"/>
<g clip-path="url(#clip0_9204_18894)">
<path d="M30 36.1576H36.7291V37.7263H31.7201V40.0017H35.0594V41.5704H31.7706V44.0982H36.931V45.6669H30V36.1576Z" fill="#D9D9D9"/>
<path d="M36.2705 38.6853H38.1421L39.8117 43.5429L41.3299 38.6853H43.151L40.6233 45.6668H38.9031L36.2744 38.6853H36.2705ZM43.151 42.1256C43.151 41.2131 43.5044 40.3045 44.1645 39.6483C44.8207 38.9921 45.6827 38.6349 46.5913 38.6349C47.4999 38.6349 48.3619 38.9882 49.0181 39.6483C49.321 39.9512 49.5734 40.355 49.7753 40.7627C49.9267 41.1665 50.0277 41.6208 50.0277 42.079C50.0277 42.5372 49.9772 42.9915 49.7753 43.4458C49.6239 43.9001 49.3715 44.2534 49.0181 44.6107C48.7153 44.9135 48.3114 45.2164 47.8532 45.3678C47.4494 45.5193 46.9408 45.6202 46.4865 45.6202C44.5139 45.6202 43.1472 44.203 43.1472 42.1295L43.151 42.1256ZM48.261 42.1722C48.261 40.8559 47.6552 40.0482 46.6418 40.0482C45.6283 40.0482 44.9721 40.8054 44.9721 42.1217V42.1722C44.9721 43.438 45.5779 44.1952 46.5913 44.1952C47.6047 44.1952 48.261 43.438 48.261 42.1722ZM50.6373 36.1537H52.5089V45.6629H50.6373V36.1537ZM53.7747 42.7818V38.6853H55.3939V42.6809C55.3939 43.5934 55.7977 44.1486 56.5083 44.1486C57.3664 44.1486 57.7236 43.341 57.7236 42.1761V38.6853H59.3428V45.5154H57.7236V44.5524C57.5722 44.9058 57.3198 45.2086 57.0169 45.4106C56.7141 45.6125 56.3607 45.7134 56.0035 45.6629C54.6367 45.6125 53.7786 44.5485 53.7786 42.7779L53.7747 42.7818ZM61.1095 43.8496V40.3589H60.0456V38.9416H61.1095V37.6758L62.9811 36.7128V38.9377H64.4488V40.355H62.9811V43.6943C62.9811 43.9972 63.1325 44.1486 63.5363 44.1486H64.3945V45.6164H62.8762C61.459 45.5659 61.1056 44.9601 61.1056 43.8457H61.1095V43.8496ZM65.0546 36.1653H66.9261V37.8855H65.0546V36.1653ZM65.105 38.8445H66.9261V45.6241H65.105V38.8445ZM67.5823 42.1334C67.5823 41.2209 67.9357 40.3123 68.5958 39.6561C69.252 38.9999 70.114 38.6426 71.0226 38.6426C71.9312 38.6426 72.7932 38.996 73.4494 39.6561C73.7523 39.9589 74.0047 40.3628 74.2066 40.7705C74.358 41.1743 74.459 41.6286 74.459 42.0868C74.459 42.7935 74.3075 43.504 73.9037 44.0593C73.4999 44.665 72.9912 45.0727 72.335 45.3756C71.9312 45.527 71.4225 45.628 70.9682 45.628C68.9452 45.628 67.5785 44.2107 67.5785 42.1373L67.5823 42.1334ZM72.6418 42.18C72.6418 40.8637 72.036 40.056 70.9721 40.056C69.9082 40.056 69.3025 40.8132 69.3025 42.1295V42.18C69.3025 43.4458 69.9082 44.203 70.9216 44.203C71.9856 44.203 72.6418 43.4458 72.6418 42.18ZM75.7287 38.8407H77.5498V39.9551C77.7012 39.5512 78.0041 39.2484 78.3574 38.9921C78.7108 38.7902 79.1651 38.6388 79.5728 38.6892C81.091 38.6892 81.9996 39.7027 81.9996 41.5742V45.6707H80.1785V41.6247C80.1785 40.6617 79.8252 40.2075 78.9632 40.2075C78.1012 40.2075 77.5459 40.9141 77.5459 42.18V45.6202H75.7248V38.8407H75.7287Z" fill="#D9D9D9"/>
<path d="M63.6458 32.9073C63.7546 32.9073 63.7546 32.7985 63.8594 32.7985V32.154C63.8594 32.0452 63.7507 32.0452 63.7507 32.0452C63.642 31.9365 63.4284 31.9365 63.3197 31.9365H62.8887V33.3344H63.1022V32.9034H63.3158L63.6381 33.4392H63.9604L63.6381 32.9034L63.6458 32.9073ZM63.4323 32.585H63.2187V32.154H63.6497C63.6497 32.154 63.7584 32.154 63.7584 32.2627V32.4762L63.6497 32.585C63.5837 32.5112 63.5099 32.5112 63.4362 32.585H63.4323Z" fill="#D9D9D9"/>
<path d="M63.6458 32.9073C63.7546 32.9073 63.7546 32.7985 63.8594 32.7985V32.154C63.8594 32.0452 63.7507 32.0452 63.7507 32.0452C63.642 31.9365 63.4284 31.9365 63.3197 31.9365H62.8887V33.3344H63.1022V32.9034H63.3158L63.6381 33.4392H63.9604L63.6381 32.9034L63.6458 32.9073ZM63.4323 32.585H63.2187V32.154H63.6497C63.6497 32.154 63.7584 32.154 63.7584 32.2627V32.4762L63.6497 32.585C63.5837 32.5112 63.5099 32.5112 63.4362 32.585H63.4323Z" fill="#D9D9D9"/>
<path d="M63.6458 32.9073C63.7546 32.9073 63.7546 32.7985 63.8594 32.7985V32.154C63.8594 32.0452 63.7507 32.0452 63.7507 32.0452C63.642 31.9365 63.4284 31.9365 63.3197 31.9365H62.8887V33.3344H63.1022V32.9034H63.3158L63.6381 33.4392H63.9604L63.6381 32.9034L63.6458 32.9073ZM63.4323 32.585H63.2187V32.154H63.6497C63.6497 32.154 63.7584 32.154 63.7584 32.2627V32.4762L63.6497 32.585C63.5837 32.5112 63.5099 32.5112 63.4362 32.585H63.4323Z" fill="#D9D9D9"/>
<path d="M64.2905 31.6104C64.0769 31.3969 63.7546 31.1794 63.3236 31.1794C63.0013 31.1794 62.6791 31.2882 62.3568 31.6104C62.1432 31.824 61.9258 32.255 61.9258 32.5773C61.9258 32.8996 62.0345 33.3306 62.3568 33.5441C62.5703 33.7577 62.8926 33.9751 63.3236 33.9751C63.6459 33.9751 63.9682 33.8664 64.2905 33.5441C64.504 33.3306 64.7215 32.8996 64.7215 32.5773C64.7215 32.255 64.6128 31.824 64.2905 31.6104ZM64.3992 33.0161C64.2905 33.2296 64.1856 33.3383 63.9682 33.4471C63.7546 33.6606 63.5372 33.6606 63.3236 33.6606C63.1101 33.6606 62.8926 33.5519 62.6791 33.4471C62.4655 33.3422 62.3568 33.1248 62.2481 33.0161C62.2481 32.8025 62.2481 32.5851 62.3568 32.3715C62.3568 32.1579 62.4655 31.9405 62.6791 31.8357C62.8926 31.6221 63.1101 31.5134 63.3236 31.5134C63.5372 31.5134 63.8595 31.5134 63.9682 31.7269C64.1818 31.8357 64.2905 32.0492 64.3992 32.2628C64.5079 32.4763 64.5079 32.7986 64.3992 33.0161Z" fill="#D9D9D9"/>
<path d="M62.2479 12.8561C60.5277 10.5885 58.0465 9.08582 55.3479 8.54609C52.6532 8.01025 49.7488 8.43737 47.2676 9.83522C49.3178 14.4675 50.8243 19.8609 60.85 20.1832C62.1391 20.1832 63.4399 20.1832 64.729 20.0745C64.729 17.3797 63.7622 14.9063 62.2479 12.8522V12.8561Z" fill="#D9D9D9"/>
<path d="M60.4229 20.936C54.385 21.2583 51.5893 23.4172 49.7527 26.2129C48.7858 27.8243 48.0325 29.5561 47.2715 31.2762C54.5985 35.2639 64.0806 31.0626 64.733 21.0369C63.3351 20.9282 61.9295 20.8234 60.4229 20.9282V20.936Z" fill="#D9D9D9"/>
</g>
<defs>
<clipPath id="clip0_9204_18894">
<rect width="52" height="37.3575" fill="white" transform="translate(30 8.32117)"/>
</clipPath>
</defs>
</svg>
