<svg width="112" height="54" viewBox="0 0 112 54" fill="none" xmlns="http://www.w3.org/2000/svg">
<rect width="112" height="54" rx="1" fill="#141210"/>
<g clip-path="url(#clip0_9204_18796)">
<path d="M41.7021 16.6943L44.5106 19.9961L40.5106 33.9711C40.5106 33.9711 39.3191 37.8104 34.7234 36.1211L32 39.2693C32 39.2693 40.4255 42.8782 44.2553 34.9693L49.617 16.6176L41.7021 16.6943ZM80 21.7622C80 21.7622 80.2553 16.9247 74.0426 16.6176L50.0426 16.6943L52.8511 19.9961L48.3404 34.8925H71.5745C71.5745 34.8925 78.1277 34.5086 78.7234 29.0568C78.7234 29.0568 78.8936 27.1372 77.5319 25.8318C77.5319 25.9086 80.0851 23.8354 80 21.7622ZM53.3617 31.4372L56.766 19.9193H59.9149C67.4043 20.1497 64.0851 26.4461 64.0851 26.4461C61.5319 32.6657 53.3617 31.4372 53.3617 31.4372ZM74.8085 29.2104C74.8085 29.2104 74.8085 31.2068 71.3191 31.514H64.5106C64.5106 31.514 66.7234 29.7479 67.4894 27.4443H73.3617C73.3617 27.4443 75.0638 27.7515 74.8085 29.2104ZM76.0851 21.7622C75.9149 23.989 73.3617 24.0658 73.3617 24.0658H68.4255C68.6809 21.0711 67.5745 19.9961 67.5745 19.9961L73.8723 19.9193C76.0851 20.1497 76.0851 21.7622 76.0851 21.7622Z" fill="#D9D9D9"/>
</g>
<defs>
<clipPath id="clip0_9204_18796">
<rect width="48" height="26.1818" fill="white" transform="translate(32 13.9091)"/>
</clipPath>
</defs>
</svg>
