<svg width="112" height="54" viewBox="0 0 112 54" fill="none" xmlns="http://www.w3.org/2000/svg">
<rect width="112" height="54" rx="1" fill="#141210"/>
<g clip-path="url(#clip0_9204_18854)">
<path d="M37.6445 37.0094H39.2965C39.2965 37.0094 40.6017 37.0094 40.6017 38.1719C40.6017 38.1719 40.773 39.2202 39.4637 39.469H38.9702V39.106H39.3128C39.3128 39.106 39.8838 38.9918 39.8634 38.4003C39.8634 38.4003 39.9409 37.5805 39.1619 37.4459H38.7254V41.1984C38.7254 41.1984 38.6887 41.2923 39.0273 41.2555V41.5982H37.6812V41.2555C37.6812 41.2555 37.9831 41.2923 37.9831 41.1413V37.4132C37.9831 37.4132 38.0035 37.3194 37.6812 37.3194L37.6445 37.0094ZM45.1742 37.5438C44.2442 36.7035 42.7635 36.8381 41.8539 37.8293C40.9444 38.8408 40.9607 40.3256 41.8743 41.1658C42.8043 42.0061 44.285 41.8715 45.1946 40.8803C46.1042 39.8891 46.0878 38.4044 45.1742 37.5438ZM44.6806 40.8803C43.9423 41.4513 42.841 41.2229 42.1966 40.3867C41.5521 39.5465 41.6255 38.4044 42.3679 37.8538C43.1062 37.2827 44.2075 37.5111 44.8519 38.3473C45.4964 39.1876 45.423 40.3092 44.6806 40.8803ZM46.1042 37.1073H47.0709L50.0688 40.3092V37.507C50.0688 37.507 50.1055 37.4295 49.767 37.4499V37.144H50.8683V37.4499C50.8683 37.4499 50.5094 37.4132 50.5094 37.5438V41.8878L47.128 38.2902V41.2066C47.128 41.2066 47.1076 41.3575 47.4502 41.3575V41.6634H46.3489V41.3412C46.3489 41.3412 46.6711 41.3983 46.6711 41.2066V37.9068C46.6711 37.9068 46.6915 37.5274 46.3693 37.4499H46.0838L46.1042 37.1073ZM51.2069 37.0135H52.5162V37.3561H52.3653L53.1606 38.6695L54.0335 37.3561H53.9193V37.0094H54.8289V37.3521H54.5638L53.3891 39.0856V41.2025C53.3891 41.2025 53.3687 41.2963 53.7317 41.2596V41.6023H52.2878V41.2596C52.2878 41.2596 52.6304 41.2963 52.6304 41.1658V39.2406L51.472 37.3724C51.472 37.3724 51.472 37.2949 51.1865 37.3153L51.2069 37.0094V37.0135ZM55.1919 37.0094H56.2361L57.6597 40.346L59.0791 37.0094H59.9887V37.3153C59.9887 37.3153 59.6298 37.2949 59.6298 37.507L60.1029 41.0516C60.1029 41.0516 60.1233 41.3004 60.3884 41.2596V41.6023H59.1729V41.2596H59.3606L58.9812 38.3636L57.5781 41.6023H57.3701L55.9832 38.3799L55.6039 41.2555H55.8119V41.5982H54.9023V41.2555H55.1307L55.6447 37.8048C55.6447 37.8048 55.7018 37.4051 55.4 37.348H55.2082V37.0094H55.1878H55.1919ZM62.1709 37.1032V37.4459C62.1709 37.4459 61.8283 37.4092 61.8283 37.5601V40.2481C61.8283 40.2481 61.9629 41.2025 62.7787 41.1821C62.7787 41.1821 63.5169 41.2188 63.8963 40.6315V37.6417C63.8963 37.6417 63.933 37.4703 63.8188 37.4499H63.5904V37.1073H64.9935V37.4499H64.8059C64.8059 37.4499 64.655 37.4499 64.655 37.6417V41.2229C64.655 41.2229 64.655 41.3575 64.7488 41.3575H64.9772V41.6798H63.8759V41.1862C63.8759 41.1862 63.6271 41.6798 62.5462 41.7205C62.5462 41.7205 61.1797 41.798 61.0492 40.4235V37.5438C61.0492 37.5438 61.0696 37.4499 60.7474 37.4663V37.1277L62.1709 37.1073V37.1032ZM69.2845 41.1821L67.5754 37.0094H67.3103L65.6053 41.2596H65.3606V41.6023H66.2906V41.2596H66.156L66.8005 39.6403H67.8447L68.5095 41.2596H68.3382V41.6023H69.6108V41.2596C69.3253 41.2963 69.2886 41.1821 69.2886 41.1821H69.2845ZM66.9147 39.2569L67.294 38.2861L67.6937 39.2569H66.9147ZM69.9657 37.0094H71.3321V37.3153C71.3321 37.3153 71.0303 37.2786 71.0303 37.4663V39.0285H73.1146V37.4703C73.1146 37.4703 73.135 37.3765 72.8127 37.3765V37.0094H74.2159V37.3724C74.2159 37.3724 73.8937 37.3521 73.914 37.4663V41.1454C73.914 41.1454 73.9508 41.28 74.2159 41.28V41.6227H72.8127V41.28C72.8127 41.28 73.1146 41.3167 73.1146 41.1454V39.4894H71.0466V41.1658C71.0466 41.1658 71.0466 41.3167 71.3688 41.28V41.6227H69.929V41.28C69.929 41.28 70.2512 41.3167 70.2308 41.1087V37.4132C70.2308 37.4132 70.2308 37.3561 69.9657 37.3765V37.0094Z" fill="#D9D9D9"/>
<path d="M49.0246 47.2275H49.975C49.975 47.2275 50.6398 47.2275 50.6765 46.5014C50.6765 46.5014 50.754 45.9508 50.0688 45.7387C50.0688 45.7387 49.5548 45.6244 49.4243 45.4164C49.4243 45.4164 49.2163 45.1105 49.7262 44.8658C49.7262 44.8658 50.0851 44.7149 50.4073 45.1309H50.5583C50.5583 45.0942 50.5583 45.0371 50.5379 44.9596C50.5011 44.825 50.4033 44.7312 50.3665 44.6945C50.3461 44.6741 50.3094 44.6578 50.2727 44.6374C50.236 44.617 50.1014 44.5599 49.873 44.6006C49.7017 44.621 49.4733 44.6578 49.302 44.8495C49.151 45.0208 49.1306 45.2125 49.1306 45.3063C49.1306 45.3063 49.1102 45.9344 49.8118 46.0894C49.8118 46.0894 50.3992 46.224 50.4196 46.5259C50.4196 46.5259 50.4767 46.9052 50.0035 46.9827C50.0035 46.9827 49.5467 47.0765 49.3223 46.791C49.3223 46.791 49.2285 46.6768 49.2652 46.3342H49.0572L49.0205 47.2315L49.0246 47.2275ZM51.0926 44.5966H52.1531C52.1531 44.5966 52.8751 44.7108 52.8343 45.3389C52.8343 45.3389 52.8547 45.8733 52.1898 46.0079H51.8676V45.8366H52.1123C52.1123 45.8366 52.4141 45.7223 52.4141 45.4164C52.4141 45.4164 52.4141 44.98 52.0348 44.8658H51.6922V46.9623C51.6922 46.9623 51.6718 47.0969 51.9002 47.0561V47.2275H51.0477V47.0357C51.0477 47.0357 51.2353 47.0561 51.2353 46.9419V44.8454C51.2353 44.8454 51.2557 44.7516 51.064 44.7516L51.0844 44.6006L51.0926 44.5966ZM55.5875 44.9596C55.0573 44.4253 54.1844 44.466 53.6337 45.0167C53.0831 45.5673 53.0464 46.4443 53.5766 46.9786C54.1069 47.513 54.9798 47.4722 55.5304 46.9215C56.0811 46.3709 56.1178 45.4939 55.5875 44.9596ZM55.2857 46.8277C54.8696 47.1703 54.2048 47.0765 53.805 46.5993C53.4257 46.1221 53.4461 45.4572 53.8825 45.0942C54.2986 44.7516 54.9635 44.8454 55.3632 45.3226C55.7425 45.8162 55.7058 46.4851 55.2857 46.8277ZM58.9852 46.9623C58.5855 47.2846 58.3204 46.8848 58.3204 46.8848L57.6555 45.9712C58.1287 45.7223 58.092 45.2859 58.092 45.2859C58.0349 44.617 57.3129 44.6945 57.3129 44.6945H56.3462V44.8658C56.5338 44.8658 56.5175 44.9596 56.5175 44.9596V47.0194C56.5175 47.1132 56.3462 47.1132 56.3462 47.1132V47.2846H57.1253V47.1132C56.9743 47.1132 56.954 47.0561 56.954 47.0561V46.1017H57.2558L57.937 47.0561C58.2225 47.3213 58.4672 47.3213 58.4672 47.3213C58.9241 47.3009 59.0546 47.0928 59.0546 47.0928C59.1321 46.9011 58.9771 46.9582 58.9771 46.9582L58.9852 46.9623ZM57.3333 45.914H56.9172V44.9433H57.2599C57.6963 45.0779 57.6596 45.5143 57.6596 45.5143C57.6392 45.8202 57.3374 45.914 57.3374 45.914H57.3333ZM58.6222 44.6006H58.8098L58.8466 44.6781H60.6657L60.7229 44.6006H60.8942L60.7229 45.0779H60.5515V44.9433H60.0009V47.0602C60.0009 47.0602 60.0009 47.154 60.1722 47.1377V47.3661H59.3931V47.1744C59.3931 47.1744 59.5644 47.1744 59.5644 47.0806V44.9474H58.9975V45.082H58.8262L58.6181 44.6047L58.6222 44.6006ZM61.1063 47.2315H62.073C62.073 47.2315 62.7378 47.2315 62.7745 46.5463C62.7745 46.5463 62.852 45.9385 62.1872 45.7468C62.1872 45.7468 61.6936 45.653 61.506 45.4246C61.506 45.4246 61.3918 45.2166 61.5835 44.9881C61.5835 44.9881 61.7181 44.8372 61.9628 44.8372C61.9628 44.8372 62.3055 44.8168 62.4768 45.1431H62.6644C62.6644 45.1431 62.6073 44.8372 62.436 44.7067C62.436 44.7067 62.3218 44.6129 61.9424 44.6129C61.9424 44.6129 61.2205 44.5925 61.1838 45.3756C61.1838 45.3756 61.1471 45.9263 61.8486 46.1017C61.8486 46.1017 62.3585 46.2159 62.4564 46.4443C62.4564 46.4443 62.6848 46.8807 61.9995 47.0154C61.9995 47.0154 61.4693 47.0725 61.3347 46.7665V46.3668H61.1063V47.2438V47.2315Z" fill="#D9D9D9"/>
<path d="M59.5791 10.05C59.5791 10.05 61.286 14.2618 62.9652 17.0165C63.1595 17.3079 63.3191 17.5993 63.3815 17.7936C63.6382 18.3418 63.8325 18.7651 63.7076 19.1536C63.6729 19.2855 63.6105 19.3479 63.548 19.4104C63.3191 19.7365 63.0346 19.8614 62.8403 19.9308C62.8403 20.0279 62.8403 20.4789 62.4517 20.8398C62.417 20.8744 62.0631 21.2283 61.515 21.2283C61.3554 21.2283 61.2582 21.1936 61.064 21.1659C60.835 21.1034 60.5158 21.0063 60.1619 20.812C60.1619 20.812 62.3268 20.7773 62.1603 19.8406C62.1603 19.8406 62.0978 19.6116 61.8342 19.4173C61.8342 19.4173 62.8333 19.3549 62.6737 18.5777C62.6737 18.5777 62.6113 18.2863 62.3199 17.8353C62.3823 17.8006 60.5435 15.8577 59.5791 10.0569V10.05ZM54.6387 12.1247C54.6387 12.1247 53.7366 13.554 53.9309 14.6851C53.9309 14.6851 53.9309 15.5594 55.4158 16.3365L57.1921 17.4051C57.1921 17.4051 58.5799 18.1475 58.7742 19.1883C58.7742 19.1883 58.0664 18.0504 56.2276 17.5647C56.2276 17.5647 53.1954 16.6904 53.0358 14.9696C53.0011 14.9349 52.8762 13.6096 54.6525 12.1177L54.6387 12.1247ZM59.4125 9.23814C59.475 9.04385 59.475 8.91202 59.4472 8.78712C59.4472 8.72467 59.4125 8.26671 59.2182 8.23896H59.0864C59.024 8.27365 58.9546 8.3014 58.8921 8.3014C58.1844 8.55814 57.5044 8.68998 56.8938 8.75242C57.1505 8.59283 57.4419 8.4263 57.6987 8.26671C58.344 7.81569 58.9893 7.35773 59.6346 6.90671C59.697 6.87202 59.7942 6.80957 59.926 6.80957C60.0578 6.80957 60.2521 6.84426 60.3146 7.00386C60.3493 7.03855 60.3493 7.0663 60.3493 7.13569C60.3493 7.26753 60.3146 7.39243 60.3146 7.46181C60.2521 7.46181 59.9884 8.3014 59.4125 9.24508V9.23814ZM55.9293 8.65528C55.9293 8.65528 48.9905 9.56426 47.9289 16.4059C47.9289 16.4059 47.2211 7.48957 55.9293 8.65528ZM49.4138 14.2687C49.4138 14.2687 47.1517 19.1328 52.3211 21.9846C52.3211 21.9846 56.7758 24.1565 58.8366 26.2659C58.8366 26.2659 61.5774 28.6667 61.4803 31.4491C61.4803 31.4491 61.6746 33.7528 59.1558 35.9524C59.1558 35.9524 62.2852 34.1344 62.5142 30.2765C62.5142 30.2765 62.9027 25.9328 55.9015 22.3663C55.9015 22.3663 53.7713 21.4295 52.6125 20.5483C52.6472 20.583 48.935 18.0851 49.4207 14.2618L49.4138 14.2687ZM54.3819 26.9459C52.1199 26.9459 50.2811 28.7916 50.2811 31.0606C50.2811 33.3295 52.1199 35.1752 54.3819 35.1752C56.644 35.1752 58.4827 33.3295 58.4827 31.0606C58.4827 28.7916 56.644 26.9459 54.3819 26.9459ZM53.8685 27.3344C55.388 27.2026 56.2554 27.8826 56.2554 27.8826L56.415 28.9512L55.0272 30.0197L53.5423 29.4369L53.1885 28.1393L53.8685 27.3275V27.3344ZM51.8354 28.2712L53.0289 28.3059L53.3203 29.5687L52.2864 30.8663L50.9958 30.901L50.7044 30.1863C50.7044 30.1863 51.0305 28.9859 51.8354 28.2712ZM53.2232 33.4891L52.224 34.1344C52.224 34.1344 51.093 33.4197 50.7044 32.0597L51.093 31.2201L52.2517 31.1577L53.3134 32.3234L53.2162 33.4891H53.2232ZM56.415 34.1344C55.8044 34.7173 55.0619 34.7797 55.0619 34.7797L53.4452 33.5446L53.577 32.4414L54.9023 31.8585L56.5468 32.6703L56.415 34.1275V34.1344ZM56.6717 32.483L55.0897 31.7405V30.3806L56.5399 29.1801L57.8929 29.8601C58.2191 30.8316 58.0248 31.7752 58.0248 31.7752L56.6717 32.4899V32.483Z" fill="#D9D9D9"/>
</g>
<defs>
<clipPath id="clip0_9204_18854">
<rect x="3" y="6.80957" width="106" height="40.381" rx="0.84127" fill="white"/>
</clipPath>
</defs>
</svg>
