<svg width="112" height="54" viewBox="0 0 112 54" fill="none" xmlns="http://www.w3.org/2000/svg">
<rect width="112" height="54" rx="1" fill="#141210"/>
<path d="M37.9042 13.9463H36.1184V15.7261H37.9042V13.9463ZM35.8876 13.9463H34.1017V15.7261H35.8876V13.9463ZM38.214 15.7261H39.9999V13.9463H38.214V15.7261ZM42.0165 13.9463H40.2307V15.7261H42.0165V13.9463ZM44.1122 13.9463H42.3263V15.7261H44.1122V13.9463ZM48.2306 13.9463H46.4447V15.7261H48.2306V13.9463ZM34.0956 17.7427H35.8815V15.963H34.0956V17.7427ZM32 19.8384H33.7858V18.0586H32V19.8384ZM34.0956 19.8384H35.8815V18.0586H34.0956V19.8384ZM32 21.855H33.7858V20.0753H32V21.855ZM34.0956 21.855H35.8815V20.0753H34.0956V21.855ZM32 23.9507H33.7858V22.1709H32V23.9507ZM34.0956 23.9507H35.8815V22.1709H34.0956V23.9507ZM32 25.9674H33.7858V24.1876H32V25.9674ZM34.0956 25.9674H35.8815V24.1876H34.0956V25.9674ZM32 28.063H33.7858V26.2832H32V28.063ZM34.0956 28.063H35.8815V26.2832H34.0956V28.063ZM32 30.0797H33.7858V28.2999H32V30.0797ZM34.0956 30.0797H35.8815V28.2999H34.0956V30.0797ZM36.1123 28.063H37.8982V26.2832H36.1123V28.063ZM36.1123 30.0797H37.8982V28.2999H36.1123V30.0797ZM38.2079 28.063H39.9938V26.2832H38.2079V28.063ZM38.2079 30.0797H39.9938V28.2999H38.2079V30.0797ZM40.2246 28.063H42.0105V26.2832H40.2246V28.063ZM40.2246 30.0797H42.0105V28.2999H40.2246V30.0797ZM42.3203 28.063H44.1061V26.2832H42.3203V28.063ZM42.3203 30.0797H44.1061V28.2999H42.3203V30.0797ZM46.4386 28.063H48.2245V26.2832H46.4386V28.063ZM32 32.1632H33.7858V30.3834H32V32.1632ZM32 34.1798H33.7858V32.4001H32V34.1798ZM34.0956 32.1632H35.8815V30.3834H34.0956V32.1632ZM36.1123 17.7488H37.8982V15.969H36.1123V17.7488ZM38.2079 17.7488H39.9938V15.969H38.2079V17.7488ZM40.2246 17.7488H42.0105V15.969H40.2246V17.7488ZM42.3203 17.7488H44.1061V15.969H42.3203V17.7488ZM44.3369 15.7321H46.1228V13.9463H44.3369V15.7261V15.7321ZM44.3369 28.0569H46.1228V26.2771H44.3369V28.0569ZM44.3369 17.7488H46.1228V15.969H44.3369V17.7488ZM46.4326 17.7488H48.2184V15.969H46.4326V17.7488ZM48.4492 17.7488H50.2351V15.969H48.4492V17.7488ZM46.4326 19.8444H48.2184V18.0647H46.4326V19.8444ZM48.4492 19.8444H50.2351V18.0647H48.4492V19.8444ZM50.5449 18.0647V19.8444H52.3307V18.0647H50.5449ZM48.4492 21.8611H50.2351V20.0813H48.4492V21.8611ZM50.5449 21.8611H52.3307V20.0813H50.5449V21.8611ZM48.4492 23.9568H50.2351V22.177H48.4492V23.9568ZM50.5449 23.9568H52.3307V22.177H50.5449V23.9568ZM48.4492 25.9734H50.2351V24.1937H48.4492V25.9734ZM48.4492 28.0691H50.2351V26.2893H48.4492V28.0691ZM46.4326 25.9734H48.2184V24.1937H46.4326V25.9734ZM50.551 25.9734H52.3368V24.1937H50.551V25.9734ZM56.3762 21.8672H58.1621V20.0874H56.3762V21.8672ZM56.3762 23.9628H58.1621V22.1831H56.3762V23.9628ZM56.3762 25.9795H58.1621V24.1997H56.3762V25.9795ZM56.3762 28.0751H58.1621V26.2954H56.3762V28.0751ZM56.3762 30.0918H58.1621V28.312H56.3762V30.0918ZM58.4719 19.8627H60.2577V18.0829H58.4719V19.8627ZM58.4719 17.767H60.2577V15.9873H58.4719V17.767ZM60.4885 19.8627H62.2744V18.0829H60.4885V19.8627ZM60.4885 17.767H62.2744V15.9873H60.4885V17.767ZM64.37 15.9873H62.5842V17.767H64.37V15.9873ZM62.5842 15.7564H64.37V13.9463H62.5842V15.7261V15.7564ZM64.6008 17.7731H66.3867V15.9933H64.6008V17.7731ZM64.6008 15.7564H66.3867V13.9463H64.6008V15.7261V15.7564ZM66.6965 17.7731H68.4823V15.9933H66.6965V17.7731ZM68.4823 13.9767H66.6965V15.7564H68.4823V13.9463V13.9767ZM70.499 15.9933H68.7132V17.7731H70.499V15.9933ZM68.7132 15.7625H70.499V13.9463H68.7132V15.7261V15.7625ZM58.4658 21.8854H60.2516V20.1056H58.4658V21.8854ZM58.4658 23.9811H60.2516V22.2013H58.4658V23.9811ZM58.4658 25.9977H60.2516V24.218H58.4658V25.9977ZM66.6965 23.9811H68.4823V22.2013H66.6965V23.9811ZM66.6965 25.9977H68.4823V24.218H66.6965V25.9977ZM70.499 22.2013H68.7132V23.9811H70.499V22.2013ZM70.499 24.218H68.7132V25.9977H70.499V24.218ZM70.8088 23.9871H72.5946V22.2074H70.8088V23.9871ZM70.8088 26.0038H72.5946V24.224H70.8088V26.0038ZM70.8088 30.11H72.5946V28.3303H70.8088V30.11ZM72.8255 23.9871H74.6113V22.2074H72.8255V23.9871ZM72.8255 26.0038H74.6113V24.224H72.8255V26.0038ZM70.8088 17.7853H72.5946V16.0055H70.8088V17.7853ZM70.8088 19.8809H72.5946V18.1011H70.8088V19.8809ZM72.8255 17.7853H74.6113V16.0055H72.8255V17.7853ZM72.8255 19.8809H74.6113V18.1011H72.8255V19.8809ZM58.4597 28.0994H60.2456V26.3197H58.4597V28.0994ZM58.4597 30.1161H60.2456V28.3363H58.4597V30.1161ZM60.4764 30.1161H62.2622V28.3363H60.4764V30.1161ZM60.4764 32.2118H62.2622V30.432H60.4764V32.2118ZM60.4764 34.2284H62.2622V32.4486H60.4764V34.2284ZM64.3579 30.432H62.572V32.2118H64.3579V30.432ZM62.572 34.2284H64.3579V32.4486H62.572V34.2284ZM64.5887 32.2118H66.3745V30.432H64.5887V32.2118ZM64.5887 34.2284H66.3745V32.4486H64.5887V34.2284ZM66.6843 32.2118H68.4702V30.432H66.6843V32.2118ZM66.6843 34.2284H68.4702V32.4486H66.6843V34.2284ZM70.4869 30.432H68.701V32.2118H70.4869V30.432ZM68.701 34.2284H70.4869V32.4486H68.701V34.2284ZM70.7966 32.2118H72.5825V30.432H70.7966V32.2118ZM72.8133 32.2118H74.5992V30.432H72.8133V32.2118ZM72.8133 28.1055H74.5992V26.3257H72.8133V28.1055ZM72.8133 30.1222H74.5992V28.3424H72.8133V30.1222ZM74.909 24.2301V26.0099H76.6948V24.2301H74.909ZM74.909 28.1055H76.6948V26.3257H74.909V28.1055ZM34.0167 36.731H32V39.9869H32.7775V38.7477H34.0227V38.359H34.4115V37.1198H34.0227V36.731H34.0167ZM33.6279 37.9702H32.7714V37.5814H33.6279V37.9702ZM36.8898 36.731H35.2619V37.1198H34.8732V39.5981H35.2619V39.9869H36.8898V39.5981H37.2786V37.1198H36.8898V36.731ZM36.5011 39.2094H35.6446V37.5814H36.5011V39.2094ZM39.763 37.1137H40.1517V37.9641H39.2953V37.5754H38.4388V39.2033H39.2953V38.8145H40.1517V39.6649H39.763V40.0537L38.1351 39.9747V39.586H37.7463V37.1076H38.1351V36.7189H39.763V37.1076V37.1137ZM42.3263 36.725H43.1828V37.9641H42.7941V38.8145H43.1828V40.0537H42.3263V38.8145H41.4699V40.0537L40.6134 39.9747V36.7189H41.4699V37.958H42.3263V36.7189V36.725ZM43.4926 36.725H45.977V37.5754H44.3491V37.9641H45.5943V38.8145H44.3491V39.2033H45.977V40.0537L43.4926 39.9747V36.7189V36.725ZM46.3658 36.646H48.8501V37.4964H47.9937V39.9747H47.2162V37.4964H46.3597V36.646H46.3658ZM51.3345 37.9641H52.5798V39.592H52.191V39.9808H50.4841V39.592H50.0954V37.1137H50.4841V36.725H52.1121V37.5754H50.8668V39.2033H51.7233V38.8145H51.3345V37.9641ZM54.9062 36.725H53.2783V37.1137H52.8896V39.9808H53.5881V39.1304H54.4446V39.9808H55.3011V37.1137H54.9123V36.725H54.9062ZM54.5965 38.3529H53.74V37.5025H54.5965V38.3529ZM58.0892 36.725H58.4779V39.9808H57.6215V38.7416H57.2327V39.1304H56.8439V38.7416H56.4552V39.9808H55.7566V36.725H56.1454V37.1137H56.5342V37.5025H56.9229V37.8912H57.3117V37.5025H57.7004V37.1137H58.0892V36.725ZM59.0975 36.725H61.5819V37.5754H59.9479V37.9641H61.1932V38.8145H59.9479V39.2033H61.5819V40.0537L59.0975 39.9747V36.7189V36.725ZM62.3594 36.725H64.3761V37.5754H62.7482V37.9641H63.9934V38.3529H64.3822V39.592H63.9934V39.9808H61.9767V39.1304H63.6047V38.7416H62.3594V38.3529H61.9707V37.1137H62.3594V36.725ZM66.0101 36.725H68.0268V37.5754H66.3928V37.9641H67.638V38.3529H68.0268V39.592H67.638V39.9808H65.6213V39.1304H67.2553V38.7416H66.0101V38.3529H65.6213V37.1137H66.0101V36.725ZM70.5172 36.725H68.8893V37.1137H68.5006V39.592H68.8893V39.9808H70.5172V39.592H70.906V37.1137H70.5172V36.725ZM70.1285 39.2033H69.272V37.5754H70.1285V39.2033ZM71.3737 36.725H73.8581V37.5754H72.2302V37.9641H73.4693V38.8145H72.2302V40.0537L71.3737 39.9747V36.7189V36.725ZM74.1679 36.646H76.6523V37.4964H75.7958V39.9747H75.0183V37.4964H74.1618V36.646H74.1679ZM77.5088 36.725H78.4381V36.9558H78.1283V38.116H77.8975V36.9558H77.5088V36.725ZM79.9932 36.725V38.1221H79.7623V37.1927L79.4525 37.8123H79.2217L78.833 37.1137V38.1221H78.6021V36.725H78.833L79.3007 37.6543L79.7684 36.725H79.9992H79.9932Z" fill="#D9D9D9"/>
</svg>
