<svg width="112" height="54" viewBox="0 0 112 54" fill="none" xmlns="http://www.w3.org/2000/svg">
<rect width="112" height="54" rx="1" fill="#141210"/>
<g clip-path="url(#clip0_9204_18828)">
<g clip-path="url(#clip1_9204_18828)">
<path d="M45.0498 18.7946C45.0498 19.3078 45.465 19.7287 45.9724 19.7287C46.4798 19.7287 46.895 19.3078 46.895 18.7946C46.895 18.2814 46.4798 17.8605 45.9724 17.8605C45.465 17.8605 45.0498 18.2814 45.0498 18.7946ZM45.5111 21.4356C45.5111 21.9488 45.9263 22.3697 46.4337 22.3697C46.9411 22.3697 47.3563 21.9488 47.3563 21.4356C47.3563 20.9224 46.9411 20.5014 46.4337 20.5014C45.9263 20.5014 45.5111 20.9224 45.5111 21.4356ZM46.5144 23.9208C46.5144 24.434 46.9296 24.855 47.4371 24.855C47.9445 24.855 48.3597 24.434 48.3597 23.9208C48.3597 23.4076 47.9445 22.9867 47.4371 22.9867C46.9296 22.9867 46.5144 23.4076 46.5144 23.9208ZM48.054 25.939C48.054 26.4522 48.4692 26.8732 48.9767 26.8732C49.4841 26.8732 49.8993 26.4522 49.8993 25.939C49.8993 25.4258 49.4841 25.0049 48.9767 25.0049C48.4692 25.0049 48.054 25.4258 48.054 25.939ZM50.0607 27.5709C50.0607 28.0841 50.4759 28.505 50.9833 28.505C51.4908 28.505 51.9059 28.0841 51.9059 27.5709C51.9059 27.0577 51.4908 26.6368 50.9833 26.6368C50.4759 26.6368 50.0607 27.0577 50.0607 27.5709ZM52.5287 28.58C52.5287 29.0932 52.9439 29.5141 53.4513 29.5141C53.9587 29.5141 54.3739 29.0932 54.3739 28.58C54.3739 28.0668 53.9587 27.6459 53.4513 27.6459C52.9439 27.6459 52.5287 28.0668 52.5287 28.58ZM55.0716 28.8914C55.0716 29.4046 55.4868 29.8255 55.9942 29.8255C56.5017 29.8255 56.9168 29.4046 56.9168 28.8914C56.9168 28.3782 56.5017 27.9572 55.9942 27.9572C55.4868 27.9572 55.0716 28.3782 55.0716 28.8914ZM57.8452 28.58C57.8452 29.0932 58.2604 29.5141 58.7678 29.5141C59.2753 29.5141 59.6904 29.0932 59.6904 28.58C59.6904 28.0668 59.2753 27.6459 58.7678 27.6459C58.2604 27.6459 57.8452 28.0668 57.8452 28.58ZM60.1575 27.5709C60.1575 28.0841 60.5727 28.505 61.0801 28.505C61.5875 28.505 62.0027 28.0841 62.0027 27.5709C62.0027 27.0577 61.5875 26.6368 61.0801 26.6368C60.5727 26.6368 60.1575 27.0577 60.1575 27.5709ZM57.7703 25.0049C57.7703 25.5181 58.1854 25.939 58.6929 25.939C59.2003 25.939 59.6155 25.5181 59.6155 25.0049C59.6155 24.4917 59.2003 24.0708 58.6929 24.0708C58.1854 24.0708 57.7703 24.4917 57.7703 25.0049ZM59.9268 23.5287C59.9268 24.0419 60.342 24.4629 60.8495 24.4629C61.3569 24.4629 61.7721 24.0419 61.7721 23.5287C61.7721 23.0155 61.3569 22.5946 60.8495 22.5946C60.342 22.5946 59.9268 23.0155 59.9268 23.5287ZM55.0716 22.2832C55.0716 22.7964 55.4868 23.2174 55.9942 23.2174C56.5017 23.2174 56.9168 22.7964 56.9168 22.2832C56.9168 21.77 56.5017 21.3491 55.9942 21.3491C55.4868 21.3491 55.0716 21.77 55.0716 22.2832ZM57.6146 21.1934C57.6146 21.7066 58.0297 22.1275 58.5372 22.1275C59.0446 22.1275 59.4598 21.7066 59.4598 21.1934C59.4598 20.6802 59.0446 20.2592 58.5372 20.2592C58.0297 20.2592 57.6146 20.6802 57.6146 21.1934ZM58.4622 18.7831C58.4622 19.2963 58.8774 19.7172 59.3848 19.7172C59.8922 19.7172 60.3074 19.2963 60.3074 18.7831C60.3074 18.2699 59.8922 17.8489 59.3848 17.8489C58.8774 17.8489 58.4622 18.2699 58.4622 18.7831ZM57.5396 16.2171C57.5396 16.7303 57.9548 17.1512 58.4622 17.1512C58.9696 17.1512 59.3848 16.7303 59.3848 16.2171C59.3848 15.7039 58.9696 15.2829 58.4622 15.2829C57.9548 15.2829 57.5396 15.7039 57.5396 16.2171ZM55.1524 18.7831C55.1524 19.2963 55.5675 19.7172 56.075 19.7172C56.5824 19.7172 56.9976 19.2963 56.9976 18.7831C56.9976 18.2699 56.5824 17.8489 56.075 17.8489C55.5675 17.8489 55.1524 18.2699 55.1524 18.7831ZM52.7651 21.1934C52.7651 21.7066 53.1803 22.1275 53.6877 22.1275C54.1951 22.1275 54.6103 21.7066 54.6103 21.1934C54.6103 20.6802 54.1951 20.2592 53.6877 20.2592C53.1803 20.2592 52.7651 20.6802 52.7651 21.1934ZM50.4528 23.6037C50.4528 24.1169 50.868 24.5378 51.3754 24.5378C51.8829 24.5378 52.298 24.1169 52.298 23.6037C52.298 23.0905 51.8829 22.6696 51.3754 22.6696C50.868 22.6696 50.4528 23.0905 50.4528 23.6037ZM55.0774 15.2887C55.0774 15.8019 55.4926 16.2228 56 16.2228C56.5074 16.2228 56.9226 15.8019 56.9226 15.2887C56.9226 14.7755 56.5074 14.3546 56 14.3546C55.4926 14.3546 55.0774 14.7755 55.0774 15.2887ZM61.7836 18.7831C61.7836 19.2963 62.1988 19.7172 62.7062 19.7172C63.2136 19.7172 63.6288 19.2963 63.6288 18.7831C63.6288 18.2699 63.2136 17.8489 62.7062 17.8489C62.1988 17.8489 61.7836 18.2699 61.7836 18.7831ZM61.3223 16.1421C61.3223 16.6553 61.7375 17.0762 62.2449 17.0762C62.7523 17.0762 63.1675 16.6553 63.1675 16.1421C63.1675 15.6289 62.7523 15.208 62.2449 15.208C61.7375 15.208 61.3223 15.6289 61.3223 16.1421ZM63.8652 13.8125C63.8652 14.3257 64.2804 14.7467 64.7878 14.7467C65.2953 14.7467 65.7104 14.3257 65.7104 13.8125C65.7104 13.2993 65.2953 12.8784 64.7878 12.8784C64.2804 12.8784 63.8652 13.2993 63.8652 13.8125ZM62.1699 11.7136C62.1699 12.2268 62.5851 12.6477 63.0925 12.6477C63.6 12.6477 64.0151 12.2268 64.0151 11.7136C64.0151 11.2004 63.6 10.7795 63.0925 10.7795C62.5851 10.7795 62.1699 11.2004 62.1699 11.7136ZM60.1633 10.0817C60.1633 10.5949 60.5784 11.0159 61.0859 11.0159C61.5933 11.0159 62.0085 10.5949 62.0085 10.0817C62.0085 9.56853 61.5933 9.14759 61.0859 9.14759C60.5784 9.14759 60.1633 9.56853 60.1633 10.0817ZM57.6953 9.07263C57.6953 9.58583 58.1105 10.0068 58.6179 10.0068C59.1253 10.0068 59.5405 9.58583 59.5405 9.07263C59.5405 8.55943 59.1253 8.13849 58.6179 8.13849C58.1105 8.13849 57.6953 8.55943 57.6953 9.07263ZM55.0716 8.84198C55.0716 9.35518 55.4868 9.77612 55.9942 9.77612C56.5017 9.77612 56.9168 9.35518 56.9168 8.84198C56.9168 8.32878 56.5017 7.90784 55.9942 7.90784C55.4868 7.90784 55.0716 8.32878 55.0716 8.84198ZM52.5287 9.07263C52.5287 9.58583 52.9439 10.0068 53.4513 10.0068C53.9587 10.0068 54.3739 9.58583 54.3739 9.07263C54.3739 8.55943 53.9587 8.13849 53.4513 8.13849C52.9439 8.13849 52.5287 8.55943 52.5287 9.07263ZM50.0607 10.0817C50.0607 10.5949 50.4759 11.0159 50.9833 11.0159C51.4908 11.0159 51.9059 10.5949 51.9059 10.0817C51.9059 9.56853 51.4908 9.14759 50.9833 9.14759C50.4759 9.14759 50.0607 9.56853 50.0607 10.0817ZM48.054 11.7136C48.054 12.2268 48.4692 12.6477 48.9767 12.6477C49.4841 12.6477 49.8993 12.2268 49.8993 11.7136C49.8993 11.2004 49.4841 10.7795 48.9767 10.7795C48.4692 10.7795 48.054 11.2004 48.054 11.7136ZM46.3588 13.8125C46.3588 14.3257 46.7739 14.7467 47.2814 14.7467C47.7888 14.7467 48.204 14.3257 48.204 13.8125C48.204 13.2993 47.7888 12.8784 47.2814 12.8784C46.7739 12.8784 46.3588 13.2993 46.3588 13.8125ZM45.5111 16.1421C45.5111 16.6553 45.9263 17.0762 46.4337 17.0762C46.9411 17.0762 47.3563 16.6553 47.3563 16.1421C47.3563 15.6289 46.9411 15.208 46.4337 15.208C45.9263 15.208 45.5111 15.6289 45.5111 16.1421ZM59.8519 13.9682C59.8519 14.4814 60.2671 14.9024 60.7745 14.9024C61.2819 14.9024 61.6971 14.4814 61.6971 13.9682C61.6971 13.455 61.2819 13.0341 60.7745 13.0341C60.2671 13.0341 59.8519 13.455 59.8519 13.9682ZM57.6953 12.6477C57.6953 13.1609 58.1105 13.5819 58.6179 13.5819C59.1253 13.5819 59.5405 13.1609 59.5405 12.6477C59.5405 12.1345 59.1253 11.7136 58.6179 11.7136C58.1105 11.7136 57.6953 12.1345 57.6953 12.6477ZM55.0716 12.025C55.0716 12.5382 55.4868 12.9591 55.9942 12.9591C56.5017 12.9591 56.9168 12.5382 56.9168 12.025C56.9168 11.5118 56.5017 11.0908 55.9942 11.0908C55.4868 11.0908 55.0716 11.5118 55.0716 12.025ZM52.5287 12.567C52.5287 13.0802 52.9439 13.5011 53.4513 13.5011C53.9587 13.5011 54.3739 13.0802 54.3739 12.567C54.3739 12.0538 53.9587 11.6329 53.4513 11.6329C52.9439 11.6329 52.5287 12.0538 52.5287 12.567ZM50.3721 13.9682C50.3721 14.4814 50.7873 14.9024 51.2947 14.9024C51.8021 14.9024 52.2173 14.4814 52.2173 13.9682C52.2173 13.455 51.8021 13.0341 51.2947 13.0341C50.7873 13.0341 50.3721 13.455 50.3721 13.9682ZM52.7593 16.1421C52.7593 16.6553 53.1745 17.0762 53.6819 17.0762C54.1894 17.0762 54.6046 16.6553 54.6046 16.1421C54.6046 15.6289 54.1894 15.208 53.6819 15.208C53.1745 15.208 52.7593 15.6289 52.7593 16.1421ZM51.681 18.7831C51.681 19.2963 52.0962 19.7172 52.6037 19.7172C53.1111 19.7172 53.5263 19.2963 53.5263 18.7831C53.5263 18.2699 53.1111 17.8489 52.6037 17.8489C52.0962 17.8489 51.681 18.2699 51.681 18.7831ZM48.9075 21.424C48.9075 21.9372 49.3226 22.3582 49.8301 22.3582C50.3375 22.3582 50.7527 21.9372 50.7527 21.424C50.7527 20.9108 50.3375 20.4899 49.8301 20.4899C49.3226 20.4899 48.9075 20.9108 48.9075 21.424ZM48.9824 16.1421C48.9824 16.6553 49.3976 17.0762 49.905 17.0762C50.4125 17.0762 50.8276 16.6553 50.8276 16.1421C50.8276 15.6289 50.4125 15.208 49.905 15.208C49.3976 15.208 48.9824 15.6289 48.9824 16.1421ZM48.4404 18.7831C48.4404 19.2963 48.8556 19.7172 49.363 19.7172C49.8704 19.7172 50.2856 19.2963 50.2856 18.7831C50.2856 18.2699 49.8704 17.8489 49.363 17.8489C48.8556 17.8489 48.4404 18.2699 48.4404 18.7831ZM65.0934 18.7831C65.0934 19.2963 65.5086 19.7172 66.0161 19.7172C66.5235 19.7172 66.9387 19.2963 66.9387 18.7831C66.9387 18.2699 66.5235 17.8489 66.0161 17.8489C65.5086 17.8489 65.0934 18.2699 65.0934 18.7831ZM64.7878 16.2171C64.7878 16.7303 65.203 17.1512 65.7104 17.1512C66.2179 17.1512 66.633 16.7303 66.633 16.2171C66.633 15.7039 66.2179 15.2829 65.7104 15.2829C65.203 15.2829 64.7878 15.7039 64.7878 16.2171ZM62.1642 25.9275C62.1642 26.4407 62.5793 26.8616 63.0868 26.8616C63.5942 26.8616 64.0094 26.4407 64.0094 25.9275C64.0094 25.4143 63.5942 24.9934 63.0868 24.9934C62.5793 24.9934 62.1642 25.4143 62.1642 25.9275ZM63.7845 23.9093C63.7845 24.4225 64.1997 24.8434 64.7071 24.8434C65.2145 24.8434 65.6297 24.4225 65.6297 23.9093C65.6297 23.3961 65.2145 22.9752 64.7071 22.9752C64.1997 22.9752 63.7845 23.3961 63.7845 23.9093ZM64.7071 21.424C64.7071 21.9372 65.1223 22.3582 65.6297 22.3582C66.1371 22.3582 66.5523 21.9372 66.5523 21.424C66.5523 20.9108 66.1371 20.4899 65.6297 20.4899C65.1223 20.4899 64.7071 20.9108 64.7071 21.424ZM61.3915 21.3491C61.3915 21.8623 61.8067 22.2832 62.3141 22.2832C62.8215 22.2832 63.2367 21.8623 63.2367 21.3491C63.2367 20.8359 62.8215 20.4149 62.3141 20.4149C61.8067 20.4149 61.3915 20.8359 61.3915 21.3491ZM55.0716 25.5469C55.0716 26.0601 55.4868 26.4811 55.9942 26.4811C56.5017 26.4811 56.9168 26.0601 56.9168 25.5469C56.9168 25.0337 56.5017 24.6128 55.9942 24.6128C55.4868 24.6128 55.0716 25.0337 55.0716 25.5469ZM52.6037 25.0049C52.6037 25.5181 53.0188 25.939 53.5263 25.939C54.0337 25.939 54.4489 25.5181 54.4489 25.0049C54.4489 24.4917 54.0337 24.0708 53.5263 24.0708C53.0188 24.0708 52.6037 24.4917 52.6037 25.0049Z" fill="#D9D9D9"/>
<path d="M54.3798 40.9543C54.3048 39.4031 52.4539 39.011 52.4539 39.011V35.2802C52.1425 33.1813 49.9109 33.1063 49.9109 33.1063H41.4287V46.0055H52.2982C54.0742 45.4635 54.3798 43.9873 54.3798 43.9873V40.9543ZM43.2047 35.5974C43.2047 35.5974 43.2797 35.0553 43.7468 34.8997H50.0666C50.0666 34.8997 50.6836 34.9746 50.7586 35.4417V38.7054H43.2047V35.5974ZM52.6903 43.7567C52.6903 43.7567 52.6153 44.2238 52.1483 44.2987H43.816C43.816 44.2987 43.3547 44.2987 43.2739 43.7567V40.5737H52.1425C52.1425 40.5737 52.6845 40.6486 52.6845 41.2714V43.7567H52.6903ZM53.8435 33.1871H66.7946V34.8939H61.2417V46.0805H59.4715V34.8939H53.8435V33.1871ZM68.5707 36.6814H70.4966V46.0863H68.5707V36.6814ZM69.574 33.0314C70.1276 33.0314 70.5773 33.4811 70.5773 34.0405C70.5773 34.5998 70.1276 35.0496 69.574 35.0496C69.0204 35.0496 68.5707 34.5998 68.5707 34.0405C68.5707 33.4811 69.0204 33.0314 69.574 33.0314Z" fill="#D9D9D9"/>
</g>
</g>
<defs>
<clipPath id="clip0_9204_18828">
<rect x="5" y="7.57141" width="102" height="38.8571" rx="0.809524" fill="white"/>
</clipPath>
<clipPath id="clip1_9204_18828">
<rect width="29.1429" height="38.1729" fill="white" transform="translate(41.4287 7.91357)"/>
</clipPath>
</defs>
</svg>
